<svg width="173" height="45" viewBox="0 0 173 45" fill="none" xmlns="http://www.w3.org/2000/svg">
<path fill-rule="evenodd" clip-rule="evenodd" d="M38.1109 38.197C41.2273 42.0471 46.0408 44.8657 51.0731 44.8657C56.4474 44.8657 61.293 41.8108 64.5014 37.6372C67.7732 33.3532 69.3783 27.9468 69.3783 22.589C69.3783 16.9951 67.6178 11.3248 64.0813 6.94705C61.0117 3.14664 56.2295 0.294949 51.2441 0.294949C45.822 0.294949 40.946 3.302 37.7055 7.50783C34.4189 11.7918 32.8295 17.1982 32.8295 22.5725C32.8295 28.1656 34.5596 33.8211 38.1109 38.197ZM15.6623 1.21426H0.503906V1.64909H4.49278L20.1495 44.4593L33.609 1.64909H37.2238V1.21426H29.0447V1.64909H32.7991L23.2494 32.6196L11.9392 1.64909H15.6623V1.21426ZM102.562 15.344V0.465937H102.221C101.178 1.24459 99.9627 2.13264 98.6067 2.13264C97.5174 2.13264 96.4114 1.77503 95.3984 1.40087L94.5094 1.05797C93.2941 0.57442 92.0015 0.169922 90.6924 0.169922C87.3434 0.169922 84.1966 1.64908 81.595 3.65961C75.7997 8.13019 73.073 15.7797 73.073 22.931C73.073 32.7134 78.9621 44.5062 90.0223 44.5062C92.4364 44.5062 94.525 43.8066 96.7065 42.8404L97.6727 42.3109C98.7456 41.7189 99.9453 41.2822 101.177 41.2822C102.874 41.2822 104.199 42.2015 105.041 43.6035H105.335V26.4042H108.669V25.9537H94.4147V26.4042H98.3089V37.9028C98.3089 38.6659 98.2776 39.4123 97.8722 40.0825C96.2993 42.6538 93.1516 44.1495 90.1923 44.1495C86.4682 44.1495 84.4586 42.39 83.0723 38.8065C81.094 33.697 80.6582 28.0736 80.6582 22.6203C80.6582 16.529 81.4681 0.56063 90.3789 0.56063C94.2584 0.56063 97.2342 3.95562 99.1032 6.9783C100.676 9.56431 101.58 12.4151 102.219 15.344H102.562ZM122.02 1.21426H106.815L106.816 1.64909H110.974V33.1491C110.974 40.9706 118.516 44.2883 125.355 44.2883C131.398 44.2883 137.848 41.2813 137.848 34.4904V1.64909H145.389V43.1668H141.821V43.6035H172.496V27.4797H172.153C172.076 29.038 171.95 30.6109 171.686 32.1535C171.203 34.9114 169.815 37.4662 167.822 39.4289C165.484 41.7336 162.199 43.1668 158.895 43.1668H152.524V22.1046C153.287 22.0421 154.034 21.9952 154.797 21.9952C159.643 21.9952 161.465 26.4198 162.135 30.5475H162.525V13.271H162.135C161.902 17.8206 160.516 21.4969 155.173 21.4969C154.284 21.4969 153.395 21.4344 152.524 21.3415V1.64909H156.776C160.717 1.64909 164.55 1.96073 167.369 5.1544C170.157 8.31681 170.937 12.4767 171.389 16.5271H171.685V1.21334H132.442V1.64909H137.207V34.3663C137.207 39.4923 132.986 42.9811 127.969 42.9811C123.312 42.9811 117.985 39.8334 117.985 34.6623V1.65001H122.02V1.21426ZM51.1044 0.932947C59.47 0.932947 61.6819 16.3874 61.6819 22.5725C61.6819 28.7576 59.47 44.2258 51.1044 44.2267C42.723 44.2267 40.5259 28.7723 40.5259 22.5725C40.5259 16.3718 42.7074 0.932947 51.1044 0.932947Z" fill="#1C2F54" fill-opacity="0.7"/>
</svg>
