<svg width="1920" height="206" viewBox="0 0 1920 206" fill="none" xmlns="http://www.w3.org/2000/svg">
<path d="M0 0L3.29614e-05 188.517C3.30467e-05 189.005 3.3132e-05 189.493 3.32173e-05 189.981C3.3717e-05 192.839 2.31233 193.883 5.76577 192.195C8.07807 191.083 10.7707 190.907 13.083 190.078C13.6036 189.893 16.026 190.508 17.3373 190.615C19.2244 190.857 21.1412 190.762 22.9929 190.332C25.0685 189.649 27.249 189.319 29.4393 189.356C31.5014 189.356 33.8137 189.825 35.2551 188.147C35.4835 188.102 35.7207 188.137 35.9258 188.244C36.1178 188.428 36.3523 188.564 36.6096 188.641C36.8668 188.718 37.1393 188.734 37.4041 188.687C37.6689 188.64 37.9183 188.532 38.1314 188.372C38.3444 188.212 38.5149 188.004 38.6284 187.766C38.8338 187.25 39.2304 186.827 39.74 186.581C40.2496 186.336 40.8352 186.285 41.3812 186.44C41.9851 186.441 42.58 186.297 43.1129 186.02C46.6064 184.479 48.5483 184.576 51.6414 186.586C52.4522 187.103 53.0228 187.483 54.1138 186.83C54.7919 186.479 55.5738 186.369 56.326 186.518C57.8075 187.62 59.6193 187.718 61.5012 188.088C63.0227 188.381 64.3941 189.288 66.2359 189.425C67.7274 189.532 66.7264 190.605 67.0367 191.2C67.2743 191.581 67.5386 191.947 67.8275 192.293C68.2446 192.056 68.6428 191.788 69.0187 191.493C69.9596 190.625 69.9396 190.605 71.0206 191.688C71.8214 192.478 72.5121 192.556 72.9526 191.688C73.393 190.82 73.373 190.498 74.2539 191.356C74.6042 191.707 75.0146 192.176 74.9746 192.576C74.8645 193.619 75.5752 193.746 76.7463 193.736C77.5071 193.736 78.7483 193.736 78.9685 194.117C80.3499 195.892 82.0816 193.883 83.5131 194.439C84.0736 193.054 84.9045 192.39 86.7363 193.678C87.3049 193.601 87.8505 193.408 88.3379 193.112C91.9915 191.161 95.7552 189.395 98.8583 186.966C100.43 185.727 102.092 184.274 104.804 185.718C107.377 184.674 110.73 185.093 112.952 183.289C114.178 182.272 115.601 181.506 117.136 181.035C118.278 180.713 119.679 181.094 121.14 180.733C122.602 180.372 124.534 179.221 126.256 180.626C128.258 179.338 130.63 180.03 132.852 179.913C134.267 179.74 135.703 179.97 136.986 180.577C138.35 181.161 139.782 181.58 141.25 181.825C141.81 181.917 142.382 181.917 142.942 181.825C143.793 181.708 143.943 180.001 145.525 181.221C145.625 181.299 147.136 180.352 148.047 179.943C149.108 179.474 153.342 179.943 154.374 180.528C154.754 180.772 155.024 181.172 155.445 181.269C156.536 181.523 156.556 183.572 158.708 182.167C159.589 181.591 161.01 183.757 162.452 182.274C162.582 182.138 163.533 182.411 164.093 182.508C164.684 182.676 165.291 182.78 165.905 182.82C167.236 182.733 168.818 182.089 169.809 182.43C170.447 182.71 171.136 182.863 171.836 182.88C172.535 182.896 173.231 182.777 173.883 182.528C175.334 181.845 176.766 182.313 178.167 182.108C178.455 182.039 178.734 181.938 178.998 181.806C181.25 180.967 182.461 181.552 185.244 182.46C189.048 183.698 192.441 185.552 196.485 186.362C196.796 186.42 197.326 186.508 197.416 186.42C198.507 185.288 199.819 186.898 200.559 186.371C202.782 184.83 203.983 186.059 205.464 187.035C206.328 187.569 207.256 187.998 208.227 188.313C208.698 188.478 209.448 188.225 209.899 188.4C211.701 189.083 210.149 184.996 212.651 187.327C213.652 188.303 216.415 186.996 216.225 189.034C216.613 189.234 217.048 189.332 217.486 189.317C218.868 189.21 219.308 189.688 219.078 190.566C218.667 192.137 220.079 191.98 221.5 192.39C222.68 192.779 223.919 192.971 225.164 192.956C227.203 192.943 229.24 193.106 231.25 193.444C231.513 193.575 231.798 193.661 232.091 193.697C233.592 193.697 235.494 193.288 236.505 193.795C238.237 194.673 239.068 193.619 240.029 193.288C240.99 192.956 241.35 193.375 241.44 193.629C241.991 195.141 244.063 195.483 245.394 196.351C246.135 196.829 247.736 197.326 248.217 195.619C248.417 194.878 249.698 194.78 250.099 195.873C250.499 196.965 251.43 197.414 252.962 197.356C253.593 197.286 254.232 197.352 254.833 197.551C255.634 197.916 256.35 198.437 256.935 199.082C257.686 200.058 258.787 198.107 259.538 199.385C259.838 199.892 261.07 200.097 261.87 200.448C262.009 200.499 262.131 200.587 262.221 200.702C263.932 203.199 266.525 202.555 269.368 201.95C271.514 201.315 273.825 201.479 275.854 202.409C277.476 203.257 279.748 203.062 281.34 204.282C281.931 204.658 282.629 204.842 283.334 204.807C284.04 204.772 284.715 204.52 285.264 204.087C286.685 202.731 288.537 203.199 290.269 203.179C291.84 203.179 293.362 202.974 294.843 203.96C296.845 205.267 299.468 204.535 301.85 204.428C302.1 204.428 302.351 203.94 302.551 203.969C303.309 204.015 304.069 203.904 304.781 203.646C305.493 203.387 306.142 202.985 306.685 202.467C307.775 203.438 308.982 204.276 310.279 204.964C311.159 205.345 312.281 206.652 313.722 205.345C316.725 206.818 319.318 205.462 322 204.643C322.664 204.552 323.338 204.552 324.002 204.643C330.369 204.701 334.843 202.389 338.156 198.653C338.867 197.863 339.257 197.307 340.939 198.009C341.683 198.262 342.486 198.3 343.251 198.118C344.017 197.937 344.712 197.543 345.253 196.985C346.014 196.253 346.154 196.351 348.406 196.429C348.791 196.422 349.162 196.288 349.457 196.048C350.398 195.258 351.189 194.37 352.2 193.619C353.106 192.993 354.071 192.454 355.083 192.01C355.564 191.785 356.514 191.512 356.725 191.659C358.456 192.868 360.528 192.088 362.41 192.263C364.282 192.498 366.175 192.031 367.706 190.956C369.337 189.854 371.71 189.317 373.852 188.664C375.994 188.01 377.956 187.347 380.238 188.264C380.717 188.33 381.205 188.215 381.599 187.942C383.982 185.786 388.256 185.727 390.678 183.611C390.889 183.425 391.629 183.523 392.12 183.611C394.43 183.776 396.714 183.047 398.476 181.582C399.637 180.717 400.815 179.858 402.01 179.006C403.141 178.206 404.112 177.055 406.014 178.45C406.897 178.524 407.782 178.318 408.536 177.865C411.709 175.689 414.622 173.299 418.706 172.012C420.242 169.858 422.445 168.241 424.993 167.398C425.293 167.29 424.993 166.422 425.273 166.061C425.683 165.349 426.084 164.325 426.854 164.11C428.15 163.861 429.483 163.861 430.778 164.11C431.629 164.217 430.778 165.739 432.39 165.456C433.717 165.25 435.013 164.88 436.244 164.354C440.048 162.579 444.362 161.515 448.096 159.671C448.49 159.467 448.916 159.325 449.357 159.252C449.701 159.202 450.053 159.263 450.358 159.428C451.449 160.764 452.43 160.179 453.191 159.301C454.442 157.877 456.334 158.159 458.086 158.257C458.766 158.257 459.387 158.862 460.087 159.164C460.457 159.376 460.854 159.537 461.269 159.642C463.541 157.886 465.773 159.642 467.975 159.74C471.118 159.818 472.98 158.384 475.042 157.194C475.541 156.847 476.116 156.62 476.722 156.532C477.327 156.444 477.945 156.497 478.526 156.686C480.298 157.096 482.24 156.989 484.141 157.311C485.955 157.474 487.687 158.122 489.146 159.184C489.416 159.445 489.769 159.61 490.147 159.65C490.525 159.691 490.907 159.606 491.228 159.408C493.04 158.608 494.912 157.389 497.124 158.94C499.537 158.725 502.039 159.408 504.402 158.53C506.053 157.916 506.404 158.53 508.576 158.608C510.968 158.608 511.228 159.115 511.378 160.481C511.449 161.154 514.191 161.525 515.072 160.881C516.681 159.468 518.783 158.707 520.948 158.755C521.442 158.658 521.906 158.449 522.302 158.146C522.699 157.843 523.016 157.453 523.23 157.008C523.701 155.321 525.022 156.033 526.113 156.286C526.684 156.433 527.004 157.028 527.565 157.262C528.826 157.799 530.197 158.237 531.569 157.477C532.511 156.959 533.58 156.7 534.662 156.725C536.053 156.725 537.665 157.223 538.766 156.062C543.771 157.038 546.443 153.731 550.357 152.697C551.218 152.472 552.029 151.721 552.75 151.721C553.712 151.813 554.597 152.272 555.212 152.999C555.733 153.975 556.213 153.906 557.284 153.536C558.285 153.214 559.857 152.833 560.447 153.175C561.799 153.936 563.21 153.175 564.001 153.438C565.224 153.807 566.513 153.92 567.785 153.77C569.867 153.555 571.839 155.594 573.921 153.896C574.045 153.971 574.162 154.056 574.271 154.15C575.332 155.34 576.934 155.321 578.635 155.291C579.696 155.295 580.744 155.507 581.718 155.916C582.692 156.325 583.571 156.922 584.301 157.672C585.062 158.53 585.752 159.037 587.104 158.218C587.521 158.21 587.929 158.337 588.265 158.579C588.265 159.32 588.575 159.818 589.636 159.554C590.017 159.467 590.037 158.696 590.447 158.481C590.961 158.256 591.543 158.225 592.079 158.394C593.17 159.135 594.081 159.984 595.302 158.53C599.186 158.013 601.798 156.14 604.311 154.16C604.51 154.028 604.741 153.951 604.982 153.935C606.673 155.477 607.924 153.799 609.076 153.448C610.227 153.097 611.558 152.306 611.398 150.931C611.398 150.492 612.219 149.955 612.669 149.526C612.879 149.994 613.32 150.502 613.27 150.931C613.17 152.014 613.65 152.365 615.192 152.375C616.393 152.375 617.914 153.253 618.705 152.95C619.678 152.466 620.77 152.257 621.858 152.345C624.151 152.687 625.982 151.37 626.113 150.482C626.333 148.902 627.734 148.248 628.765 147.224C629.186 146.805 629.086 146.122 629.336 145.585C629.816 144.61 630.747 144.415 631.968 145.185C632.799 145.722 633.72 146.219 634.341 145.341C635.092 144.278 637.344 144.629 637.684 143.107C637.774 142.698 639.876 142.21 640.917 142.337C641.628 142.415 642.048 142.834 642.729 142.239C643.91 141.215 645.172 140.288 647.344 140.659C647.594 140.659 648.345 140.259 648.285 140.112C647.814 138.366 649.356 138.444 650.927 138.503L651.428 138.503C653.43 138.503 655.662 138.903 657.364 138.386C658.905 137.918 659.766 136.376 661.117 135.459C662.469 134.542 663.119 133.255 665.452 133.381C666.042 133.381 666.803 132.777 667.314 132.338C667.932 131.726 668.73 131.316 669.597 131.162C670.464 131.009 671.358 131.119 672.158 131.479C673.77 132.26 674.761 132.201 675.922 131.187C677.083 130.172 678.274 129.04 679.396 127.928C679.903 127.373 680.378 126.79 680.817 126.182C681.988 127.343 682.589 126.299 683.289 125.831C683.99 125.363 684.651 124.738 685.442 124.319C686.001 124.066 686.618 123.959 687.233 124.007C687.777 124.088 688.334 124.043 688.856 123.873C689.378 123.703 689.851 123.415 690.236 123.031C691.237 122.124 692.839 122.124 693.91 121.627C695.522 120.875 696.212 121.158 697.133 121.988C698.745 123.451 699.946 123.802 701.498 122.768C703.429 121.47 705.021 121.617 707.113 122.495C708.264 122.973 709.836 123.851 711.277 122.563C711.436 122.498 711.606 122.465 711.778 122.465C711.95 122.465 712.12 122.498 712.278 122.563C715.281 124.231 716.723 122.466 718.815 121.324C720.907 120.183 723.249 119.558 723.559 117.295C723.67 116.486 724.721 115.725 725.431 114.974C725.746 114.833 726.103 114.812 726.432 114.915C729.265 117.266 732.358 115.783 734.53 114.671C736.991 113.36 739.576 112.282 742.248 111.452C742.949 111.177 743.688 111.003 744.44 110.935C747.393 110.935 747.353 110.935 748.805 109.608C749.445 109.023 750.426 108.047 750.626 109.862C751.151 110.134 751.751 110.233 752.338 110.145C753.79 109.55 755.561 109.403 756.542 108.125C757.864 106.379 759.896 106.018 762.488 106.945C763.735 107.351 764.9 107.965 765.932 108.76C766.933 109.579 767.333 109.023 768.174 108.76C769.645 108.311 771.177 108.994 771.367 109.852C771.392 110.059 771.469 110.256 771.59 110.428C771.712 110.599 771.874 110.739 772.063 110.835C772.253 110.931 772.463 110.981 772.677 110.979C772.891 110.978 773.101 110.926 773.289 110.828C774.09 110.401 774.99 110.182 775.903 110.19C776.816 110.199 777.711 110.435 778.504 110.876C779.665 110.203 780.666 110.194 781.507 111.208C781.829 111.327 782.186 111.327 782.508 111.208C783.589 110.447 784.57 109.462 786.011 110.886C788.634 109.647 792.098 111.764 794.55 109.764C794.795 109.605 795.071 109.495 795.361 109.442C799.225 108.467 800.116 108.789 800.426 111.862C800.586 113.462 801.177 112.603 802.228 112.418C803.279 112.232 804.44 112.223 805.231 111.442C806.021 110.662 806.502 110.672 806.512 111.715C806.522 112.759 806.172 113.237 808.164 112.437C809.615 111.852 811.817 112.213 813.689 111.647C815.311 111.159 816.942 111.871 819.535 113.413C819.988 113.714 820.527 113.871 821.076 113.86C821.625 113.85 822.157 113.673 822.598 113.354C823.026 112.961 823.512 112.633 824.039 112.379C824.36 112.281 824.95 112.73 825.431 112.73C825.911 112.73 826.772 112.291 827.092 112.447C827.686 112.756 828.171 113.232 828.484 113.813C828.704 114.232 828.484 114.788 828.534 115.256C828.534 115.959 828.824 115.832 829.635 115.588C831.146 115.139 834.3 116.017 836.121 116.681C837.943 117.344 838.664 119.246 841.206 119.002C842.207 119.978 843.649 119.617 844.87 119.558C846.251 119.49 848.083 118.583 848.874 118.983C850.316 119.705 851.657 119.471 853.068 119.617C853.653 119.72 854.224 119.887 854.77 120.114C856.051 120.716 857.521 120.814 858.874 120.388C859.535 120.144 860.676 120.593 861.607 120.71C862.167 120.788 863.038 121.022 863.268 120.846C865.38 119.158 867.122 121.675 869.084 121.061C870.026 122.045 870.834 123.143 871.487 124.329C871.967 125.558 872.678 126.094 874.429 126.163C877.823 126.309 880.906 125.977 883.158 123.899C883.759 123.343 884.159 123.256 884.97 123.831C886.066 124.522 887.214 125.132 888.403 125.655C890.045 126.475 891.697 126.377 892.407 125.07C892.837 124.164 893.558 123.42 894.462 122.95C895.365 122.48 896.401 122.31 897.412 122.465C898 122.429 898.552 122.183 898.964 121.773C899.825 120.866 900.455 121.207 901.116 121.861C902.748 123.451 903.518 123.578 904.399 122.026C905.1 120.778 905.651 120.631 906.611 121.548C907.572 122.465 908.453 122.075 909.484 122.153C910.305 122.222 910.655 123.899 911.967 122.544C913.398 124.602 917.232 123.353 918.974 125.255C919.584 125.938 921.076 125.314 921.566 124.28C922.447 122.407 923.208 120.446 926.661 120.319C928.663 118.544 932.147 118.671 934.389 117.178C934.729 116.909 935.144 116.746 935.58 116.71C938.043 117.178 939.194 115.852 940.585 114.856C941.975 113.755 943.622 113.004 945.38 112.671C946.661 112.427 948.113 112.74 949.074 112.232C950.035 111.725 950.425 110.691 951.286 110.037C952.657 109.003 953.148 109.12 954.669 110.545C956.191 111.969 959.964 112.067 961.466 110.545C961.866 110.135 961.626 109.569 962.727 109.345C967.202 108.262 967.612 104.594 970.505 102.458C971.005 102.087 970.425 101.033 970.645 100.341C970.995 99.2971 972.557 99.1898 973.648 100.019C974.008 100.312 974.699 100.712 975.029 100.624C976.266 100.33 977.462 99.8947 978.593 99.3263C979.314 98.9361 979.594 98.1557 980.275 97.6875C981.676 96.712 983.007 95.4633 984.709 94.9463C986.411 94.4293 987.812 95.7462 989.344 96.2925C990.21 96.5543 991.093 96.7628 991.986 96.9168C992.296 96.9379 992.604 96.9803 992.907 97.0436C994.118 97.4826 992.827 94.5463 995.19 96.2144C996.06 96.829 997.702 96.2145 998.523 95.3072C999.093 94.6634 999.524 95.3853 999.934 95.3755C1001.81 95.2975 1003.44 96.9266 1005.41 95.7755C1005.86 96.2535 1006.23 96.3218 1006.84 95.7755C1008.91 94.0879 1008.94 94.0391 1011.29 94.0976C1014.21 94.1756 1016.86 92.9855 1019.88 93.2684C1020.89 93.3562 1022.14 92.527 1023.05 91.932C1024.73 90.8296 1026.29 89.7468 1028.8 89.6785C1030.34 89.6785 1029.7 88.5079 1029.59 87.9519C1029.23 86.0886 1029.52 85.5716 1031.6 85.357C1033.66 85.1751 1035.62 84.3973 1037.22 83.1231C1038.34 82.2354 1040.88 82.4305 1040.77 80.6063C1041.15 80.405 1041.56 80.2977 1041.99 80.2941C1043.11 81.2696 1045.89 80.5477 1046.26 82.4402C1046.35 82.889 1047.09 83.4157 1048.02 82.6451C1048.57 82.2061 1049.68 82.2451 1049.66 83.1524C1049.66 84.8888 1050.86 85.4448 1053.05 85.3668C1054.14 85.3282 1055.23 85.5247 1056.23 85.9423C1057.23 86.3325 1057.84 86.4789 1057.7 87.3373C1057.56 88.1958 1058.26 88.3128 1059.22 88.3128C1059.66 88.3128 1060.38 88.3811 1060.51 88.586C1060.84 89.1664 1061.1 89.7818 1061.28 90.4199C1061.93 90.1472 1062.63 89.9697 1063.34 89.8931C1064.23 89.8931 1065.1 90.4102 1065.98 90.4297C1066.68 90.4297 1067.39 89.8834 1068.11 89.8443C1069.99 89.7663 1072.12 89.2103 1073.54 90.7028C1074.3 91.4832 1075.06 91.3076 1075.97 90.7028C1076.63 90.2638 1077.51 90.2638 1077.69 91.1515C1077.77 91.5125 1077.63 91.8929 1077.69 92.2441C1077.86 92.8782 1077.06 93.7854 1078.39 94.0976C1078.99 94.2409 1079.62 94.2092 1080.2 94.0063C1080.79 93.8033 1081.29 93.4382 1081.67 92.9562C1081.86 92.6564 1082.01 92.3268 1082.1 91.9807C1082.27 92.2603 1082.47 92.5247 1082.69 92.7709C1083.18 93.2294 1083.69 94.0293 1084.23 94.0293C1085.83 94.0293 1085.71 94.7024 1085.68 95.4438C1085.69 95.6128 1085.75 95.7752 1085.85 95.915C1085.95 96.0548 1086.08 96.1672 1086.24 96.241C1086.4 96.3149 1086.57 96.3477 1086.75 96.3362C1086.92 96.3247 1087.09 96.2693 1087.23 96.1754C1087.84 95.827 1088.52 95.6071 1089.23 95.5298C1089.93 95.4525 1090.65 95.5196 1091.33 95.7267C1091.84 95.8242 1091.98 96.7022 1092.53 96.9753C1093.08 97.2485 1094.33 97.1119 1094.7 97.4631C1095.78 98.4971 1097.17 98.4386 1098.7 98.4874C1099.16 98.5447 1099.62 98.5111 1100.06 98.3887C1100.51 98.2663 1100.92 98.0576 1101.28 97.7753C1101.41 98.4617 1101.66 99.1214 1102.02 99.7263C1103.31 101.297 1106.38 101.872 1109.46 101.209C1110.49 101.03 1111.49 100.766 1112.47 100.419C1114.07 99.7458 1115.34 99.1605 1115.97 101.151C1116.22 101.96 1118.46 100.643 1118.67 102.009C1118.93 103.658 1119.98 101.911 1120.34 102.253C1120.7 102.594 1122.35 102.906 1120.96 103.823C1120.74 103.97 1121.21 104.799 1121.59 105.267C1122.4 106.243 1122.81 105.131 1123.37 104.984C1124.06 104.768 1124.73 104.487 1125.37 104.145C1125.73 103.939 1126.11 103.753 1126.49 103.589C1128.6 105.17 1130.65 103.589 1132.71 103.589C1133.01 103.585 1133.3 103.678 1133.54 103.853C1134.61 105.023 1136.15 105.082 1137.88 105.072C1139.05 105.072 1138.4 107.023 1140.48 106.516C1141.02 106.38 1141.58 106.39 1142.11 106.547C1142.64 106.704 1143.12 107 1143.49 107.404C1144.24 108.145 1144.77 109.169 1145.77 109.589C1148.5 110.901 1151.3 112.077 1154.16 113.11C1155.6 113.549 1156.53 114.086 1158.01 113.257C1158.95 112.749 1160.01 113.257 1161.08 113.5C1162.61 113.783 1162.47 114.983 1163.56 115.178C1164.65 115.373 1166.03 114.954 1165.81 116.359C1166.17 116.359 1166.52 116.271 1166.87 116.203C1167.22 116.134 1168.06 115.861 1168.18 115.969C1170 117.627 1171.86 116.329 1173.29 115.773C1174.51 115.305 1175.23 114.944 1176.11 115.851C1177.21 117.003 1178.89 117.266 1180.57 117.705C1182 118.076 1184 118.056 1184.44 119.656C1184.51 119.939 1185.74 120.378 1185.96 120.261C1188.19 119.1 1190.76 121.236 1192.97 119.841C1193.19 119.761 1193.43 119.761 1193.66 119.841C1195.21 120.349 1196.56 121.236 1198.43 121.119C1200.14 122.934 1201.73 122.543 1203.34 121.012C1204.15 120.231 1204.82 120.261 1206.18 120.749C1207.24 121.119 1209.08 120.485 1210.49 120.124C1211.7 119.765 1212.86 119.253 1213.93 118.602L1213.82 118.515C1214.01 118.398 1214.2 118.29 1214.11 118.515C1214.51 118.271 1214.73 118.388 1214.7 118.417C1214.57 118.575 1214.42 118.718 1214.26 118.846C1214.89 120.29 1216.4 119.49 1217.55 119.402C1218.4 119.344 1219.13 118.71 1219.98 118.427C1221.85 117.832 1223.82 117.89 1224.27 118.915C1224.99 120.534 1226.4 120.329 1227.99 120.329C1228.6 120.329 1229.68 120.466 1229.73 120.651C1230.36 123.1 1231.5 121.519 1232.59 120.895C1234.08 120.017 1235.59 119.168 1237.11 118.319C1238.55 119.295 1239.85 118.398 1241.17 118.124C1241.91 118.001 1242.61 117.77 1243.28 117.442C1244.67 116.622 1244.66 116.661 1247.53 116.651C1248.44 116.636 1249.34 116.433 1250.17 116.056C1255.18 113.696 1256.49 113.832 1260.18 117.237C1260.9 117.836 1261.79 118.217 1262.73 118.331C1263.67 118.446 1264.63 118.289 1265.48 117.881C1267.04 117.032 1267.43 118.856 1268.33 118.124C1268.68 117.824 1269.1 117.604 1269.55 117.481C1270 117.357 1270.47 117.334 1270.93 117.412C1275.21 118.066 1276.94 115.169 1279.94 114.027C1279.94 112.388 1280.81 113.325 1281.45 113.783C1282.09 114.242 1282.46 114.759 1283.26 113.939C1283.85 113.364 1284.68 112.915 1285.35 112.379C1286.2 111.696 1286.73 111.54 1288.48 111.588C1288.65 111.564 1288.82 111.564 1288.98 111.588C1291.16 112.271 1291.58 109.481 1293.57 110.272C1295.13 110.862 1296.87 110.862 1298.43 110.272C1299.89 109.999 1301.28 109.438 1302.52 108.623C1303.24 107.919 1304.17 107.441 1305.18 107.247C1308.73 107.247 1310.69 105.54 1312.86 103.979C1313.73 103.355 1317.6 102.341 1318.29 102.867C1320.29 104.35 1321.88 103.082 1323.5 102.731C1325.85 102.214 1328.03 101.316 1330.37 100.78C1331.28 100.706 1332.19 100.812 1333.06 101.092C1335.15 101.511 1337.17 101.872 1338.85 100.409C1339.15 100.236 1339.51 100.177 1339.85 100.243C1341.86 100.853 1344.02 100.832 1346.02 100.185C1347.21 99.8238 1347.45 99.8433 1348.02 100.79C1349.53 103.269 1351.92 105.125 1354.74 106.009C1355.5 106.262 1355.89 106.623 1356.85 106.223C1359.05 105.326 1359.11 105.452 1362.23 105.726C1363.24 105.813 1364.56 106.038 1365.18 105.726C1366.98 104.701 1368.95 105.238 1370.82 105.033C1372.04 104.896 1373.21 104.428 1374.42 104.36C1374.98 104.408 1375.55 104.262 1376.02 103.946C1376.48 103.631 1376.83 103.167 1376.98 102.633C1377.12 102.445 1377.31 102.302 1377.53 102.224C1380.43 103.736 1381.84 101.199 1384.09 100.955C1384.69 100.81 1385.31 100.728 1385.93 100.711C1387.14 100.858 1388.93 101.619 1389.38 101.307C1390.78 100.273 1391.61 100.819 1392.7 101.394C1393.03 101.487 1393.38 101.487 1393.71 101.394C1394.71 101.229 1396.03 100.633 1396.65 100.907C1398.86 101.826 1400.96 102.974 1402.91 104.331C1403.68 104.877 1403.98 105.726 1405.32 105.774C1406.66 105.823 1407.89 105.774 1408.83 104.857C1409.36 104.322 1410.07 104.001 1410.83 103.96C1411.97 104.243 1413.61 104.809 1413.84 105.462C1414.19 106.584 1415.35 106.994 1416.17 107.677C1417.85 109.091 1421.1 108.896 1422.38 110.779C1424.5 110.779 1426.75 111.013 1428.69 110.574C1430.03 110.281 1430.93 109.998 1432.17 110.574C1432.65 110.837 1433.2 110.955 1433.75 110.913C1434.29 110.872 1434.82 110.672 1435.25 110.34C1435.65 110.165 1436.09 110.111 1436.52 110.184C1437.8 112.427 1441.36 111.784 1443.32 113.11C1444.32 113.911 1445.22 114.832 1445.99 115.851C1446.07 115.939 1445.99 116.115 1445.99 116.212C1446.53 117.29 1447.2 118.299 1447.99 119.217C1449.49 120.622 1450.7 118.007 1452.31 118.885C1453.21 117.032 1455.54 119.597 1456.58 118.163C1458.12 118.388 1459.79 117.685 1461.29 118.71C1462.29 119.402 1463.02 118.476 1463.65 117.998C1463.97 117.682 1464.39 117.493 1464.85 117.468C1465.3 117.443 1465.75 117.583 1466.11 117.861C1467.54 118.68 1470.3 118.436 1470 120.602C1470 120.729 1470.7 121.041 1471.09 121.051C1473.5 121.129 1475.9 120.895 1478.22 121.743C1478.89 121.987 1480.04 121.539 1480.97 121.441C1481.33 121.419 1481.68 121.435 1482.03 121.49C1482.77 121.587 1482.82 123.06 1484.22 122.065C1484.33 121.987 1485.3 122.631 1485.93 122.846C1486.46 123.06 1487.04 123.147 1487.62 123.099C1489.24 122.758 1490.78 122.212 1492.41 121.88C1493 121.818 1493.58 121.964 1494.07 122.29C1494.81 122.865 1495.27 123.636 1496 124.241C1496.45 124.528 1496.99 124.655 1497.53 124.602C1498.85 123.626 1498.97 124.163 1498.99 125.109C1498.99 125.671 1499.12 126.226 1499.35 126.738C1501.62 126.689 1501.35 128.826 1502.98 129.04C1505.99 129.431 1508.99 129.577 1512.06 129.801C1512.72 129.85 1513.41 129.733 1514.07 129.801C1514.25 129.831 1514.43 129.902 1514.58 130.009C1514.73 130.116 1514.86 130.255 1514.95 130.416C1515.25 131.547 1516.02 131.391 1516.95 130.874C1517.45 130.576 1517.93 130.23 1518.36 129.84C1519.06 129.226 1519.57 128.913 1520.57 129.723C1521.34 130.017 1522.19 130.017 1522.95 129.723C1524.9 128.748 1527.02 129.031 1529.08 129.07C1530.65 129.07 1531.51 128.631 1531.99 127.606C1532.79 125.889 1534.3 125.07 1536.89 124.563C1540.08 123.948 1542.89 122.66 1543.14 119.539C1543.29 117.734 1545.56 116.329 1547.72 115.237C1548.02 115.164 1548.34 115.202 1548.62 115.344C1549.01 115.709 1549.37 116.104 1549.7 116.524C1550.09 116.095 1550.36 115.549 1550.89 115.247C1552.38 114.427 1554.19 114.505 1555.96 114.476C1559.13 114.476 1559.22 114.33 1560.62 115.364C1560.74 115.49 1560.88 115.591 1561.04 115.657C1561.2 115.724 1561.38 115.755 1561.55 115.748C1561.72 115.742 1561.89 115.698 1562.05 115.619C1562.2 115.541 1562.34 115.43 1562.44 115.295C1562.74 115.179 1563.07 115.159 1563.38 115.237C1564.44 115.432 1563.55 116.817 1565.48 116.807C1566.48 116.807 1567.17 115.237 1568.25 116.495C1569.1 116.222 1570.03 116.21 1570.89 116.461C1571.75 116.712 1572.51 117.214 1573.07 117.9C1574.18 119.119 1575.08 118.417 1576.17 118.144C1577.89 117.705 1578.36 115.783 1580.41 116.017C1581.86 116.31 1583.27 116.778 1584.6 117.412C1586.71 118.183 1588.6 119.363 1591.28 118.895C1591.44 118.895 1591.85 119.344 1591.99 119.627C1592.81 121.207 1592.81 121.217 1594.81 120.085C1595.31 119.802 1595.44 119.373 1596.07 120.153C1597.78 122.252 1599.62 124.246 1601.58 126.123C1602.77 127.275 1604.49 128.133 1605.75 129.255C1607.01 130.377 1609.11 129.304 1610.69 130.396C1611.88 131.225 1614.16 130.338 1615.56 129.645C1616.73 129.06 1617.22 129.304 1618.42 129.577C1622.67 130.552 1625.49 132.942 1628.96 134.649C1629.36 134.854 1629.52 135.401 1630.39 135.625C1631.88 136.044 1632.39 133.928 1633.86 135.088C1634.71 135.752 1636.08 134.523 1636.78 135.557C1638.56 135.176 1640.41 134.913 1642.1 134.376C1643.79 133.84 1645.88 133.303 1646.82 132.289C1648.03 130.972 1650.39 130.504 1651.03 128.913C1651.28 128.289 1651.53 128.065 1652.03 128.806C1652.3 129.206 1652.65 129.587 1652.88 130.006C1653.94 131.957 1654.3 132.289 1656.6 131.85C1658.3 131.586 1660.04 131.666 1661.71 132.084C1662.54 132.194 1663.33 132.502 1664.01 132.98C1664.69 133.458 1665.24 134.092 1665.61 134.825C1665.8 135.135 1666.05 135.405 1666.35 135.62C1666.65 135.834 1666.99 135.988 1667.35 136.074C1668.14 136.249 1669.72 136.21 1669.93 135.898C1670.93 134.328 1673.11 133.947 1674.85 133.137C1676.58 132.328 1678.2 131.391 1679.85 130.455C1680.63 129.984 1681.36 129.459 1682.06 128.884C1682.27 128.728 1682.44 128.318 1682.54 128.338C1684.89 128.728 1686.33 127.362 1688.23 126.875C1690.22 126.423 1692.25 126.178 1694.29 126.143C1697.3 126.094 1699.56 124.807 1702.19 124.192C1705.33 123.381 1708.58 123.052 1711.82 123.216C1712.97 123.314 1714.16 123.158 1715.32 123.216C1716.47 123.275 1718.22 122.524 1718.11 124.299C1718.44 124.311 1718.78 124.284 1719.11 124.221C1722.44 122.895 1726.03 122.289 1729.62 122.446C1732.01 122.553 1734.2 121.314 1736.71 121.724C1737.34 121.831 1738.47 121.646 1738.59 121.841C1739.92 124.075 1743 123.948 1745.46 124.66C1745.71 124.738 1745.87 124.982 1746.06 125.158L1747.06 126.133C1747.35 125.79 1747.69 125.482 1748.06 125.216C1748.49 124.972 1749.26 124.641 1749.56 124.768C1750.39 125.109 1750.97 125.919 1751.81 126.055C1752.65 126.192 1753.49 125.577 1754.38 125.45C1754.68 125.45 1755.11 126.036 1755.49 126.045C1756.01 126.034 1756.52 125.889 1756.97 125.626C1756.59 124.007 1757.82 123.87 1759.55 123.899C1760.01 123.899 1760.55 123.265 1760.96 122.924C1761.62 122.426 1761.96 122.504 1762.04 123.216C1762.03 123.457 1762.03 123.698 1762.04 123.938C1762.38 126.104 1763.22 126.523 1766.12 125.675C1767.32 125.314 1767.37 125.675 1768.12 126.221C1769.41 127.197 1770.34 128.904 1773.12 128.367C1774.42 128.123 1775.74 128.865 1777.33 128.416C1778.96 128.138 1780.64 128.115 1782.28 128.348C1783.68 128.416 1785.02 128.172 1786.5 128.884C1787.23 129.171 1788.02 129.253 1788.8 129.121C1789.57 128.988 1790.3 128.646 1790.88 128.133C1792.2 127.007 1793.75 126.151 1795.42 125.616C1796.78 125.206 1796.9 124.797 1797.11 123.919C1797.32 123.041 1797.89 121.851 1799.6 123.207C1800.04 123.268 1800.49 123.171 1800.87 122.934C1801.77 122.143 1802.53 121.256 1803.38 120.436C1803.92 119.909 1804.2 119.851 1806 119.597C1806.16 119.612 1806.32 119.612 1806.49 119.597C1808.67 118.963 1808.75 118.983 1810.39 120.231C1811.19 120.872 1812.02 121.468 1812.89 122.017C1813.38 122.3 1813.94 122.449 1814.51 122.446C1816.13 121.022 1816.98 122.231 1818.07 122.885C1819.1 123.676 1820.29 124.263 1821.55 124.611C1823.11 124.66 1824.65 124.929 1826.13 125.411C1827.3 125.938 1828.22 124.572 1829.89 125.304C1831.41 125.967 1831.8 125.519 1832.48 126.114C1834.05 127.489 1836.64 128.065 1839.38 127.743C1840.66 127.606 1842.01 127.743 1843.3 127.587C1844.59 127.431 1845.69 126.972 1846.9 126.914C1848.81 126.826 1850.84 126.572 1852.26 128.065C1852.92 128.564 1853.71 128.872 1854.53 128.952C1856.06 127.723 1858.06 128.699 1859.68 128.231C1859.82 128.231 1860.02 128.065 1860.02 127.977C1859.96 126.514 1860.41 125.548 1862.89 125.343C1864.3 125.226 1865.54 124.211 1866.9 123.714C1869.02 122.943 1869.34 122.992 1871 124.28C1871.72 124.836 1872.19 124.65 1873 124.377C1875 123.724 1875 123.821 1876.01 125.47C1876.35 126.047 1876.87 126.511 1877.49 126.806C1877.81 126.953 1878.57 126.455 1879.16 126.406C1880.06 126.349 1880.96 126.366 1881.86 126.455C1882.3 126.512 1882.72 126.659 1883.1 126.884C1884.39 127.635 1886.01 128.162 1886.95 129.148C1888.62 130.894 1889.75 128.484 1891.51 128.943C1892.92 129.313 1895.11 129.635 1896.52 128.348C1896.82 128.236 1897.15 128.236 1897.45 128.348C1899.29 130.035 1901.28 128.757 1902.51 128.104C1904.51 127.05 1905.43 127.899 1905.84 128.826C1906.45 130.191 1906.85 129.869 1908.18 129.304C1909.67 128.65 1911.72 128.874 1912.98 127.636C1913.98 126.66 1915.6 125.938 1915.99 124.582C1916.19 123.772 1916.52 124.211 1917.16 124.358C1918.43 124.552 1919.71 124.656 1921 124.67L1921 -0.000335878L0 0ZM361.96 190.79C361.686 190.723 361.425 190.611 361.189 190.459C362.27 189.844 363.321 189.2 364.462 188.654C364.693 188.547 365.293 188.839 365.333 188.849C365.132 189.529 364.671 190.109 364.046 190.469C363.421 190.83 362.679 190.945 361.97 190.79L361.96 190.79Z" fill="#1C2F54"/>
</svg>
