<svg width="440" height="114" viewBox="0 0 440 114" fill="none" xmlns="http://www.w3.org/2000/svg">
<path d="M1611 206.482L1611 17.5237C1611 17.0349 1611 16.5459 1611 16.0571C1611 13.1921 1608.69 12.1459 1605.24 13.8374C1602.93 14.9521 1600.24 15.1281 1597.93 15.9592C1597.41 16.145 1594.99 15.529 1593.68 15.4215C1591.8 15.1783 1589.88 15.2744 1588.03 15.7051C1585.96 16.3893 1583.78 16.7201 1581.59 16.6829C1579.53 16.6829 1577.22 16.2135 1575.78 17.8953C1575.55 17.9399 1575.32 17.9053 1575.11 17.7975C1574.92 17.6133 1574.69 17.4769 1574.43 17.3996C1574.17 17.3223 1573.9 17.3065 1573.63 17.3535C1573.37 17.4004 1573.12 17.5088 1572.91 17.6694C1572.7 17.8301 1572.53 18.0383 1572.41 18.2766C1572.21 18.7945 1571.81 19.2183 1571.3 19.4645C1570.79 19.7107 1570.21 19.7614 1569.66 19.6064C1569.06 19.605 1568.46 19.7495 1567.93 20.0269C1564.44 21.5718 1562.5 21.474 1559.41 19.4598C1558.6 18.9415 1558.03 18.5602 1556.94 19.2153C1556.27 19.5668 1555.48 19.6774 1554.73 19.5282C1553.25 18.4233 1551.44 18.3255 1549.56 17.954C1548.04 17.6606 1546.67 16.7513 1544.83 16.6144C1543.34 16.5068 1544.34 15.4313 1544.03 14.8348C1543.8 14.4525 1543.53 14.0866 1543.24 13.7397C1542.83 13.9773 1542.43 14.2453 1542.05 14.5415C1541.11 15.4117 1541.13 15.4313 1540.05 14.3459C1539.25 13.5539 1538.56 13.4757 1538.12 14.3459C1537.68 15.2161 1537.7 15.5388 1536.82 14.6783C1536.47 14.3263 1536.06 13.857 1536.1 13.4561C1536.21 12.4098 1535.5 12.2827 1534.33 12.2925C1533.57 12.2925 1532.33 12.2925 1532.11 11.9112C1530.73 10.1316 1529 12.1459 1527.57 11.5885C1527.01 12.977 1526.18 13.6419 1524.35 12.3512C1523.79 12.4287 1523.24 12.6219 1522.75 12.9183C1519.1 14.8739 1515.34 16.6437 1512.24 19.0784C1510.67 20.3202 1509.01 21.7771 1506.3 20.33C1503.74 21.3762 1500.39 20.9558 1498.17 22.7647C1496.94 23.7838 1495.52 24.5519 1493.99 25.0234C1492.85 25.3461 1491.45 24.9647 1489.99 25.3265C1488.53 25.6883 1486.6 26.8421 1484.88 25.4341C1482.88 26.7247 1480.51 26.0306 1478.29 26.1479C1476.87 26.3218 1475.44 26.0908 1474.16 25.483C1472.79 24.8977 1471.36 24.4774 1469.9 24.2314C1469.34 24.1391 1468.77 24.1391 1468.21 24.2314C1467.36 24.3487 1467.21 26.0598 1465.63 24.8376C1465.53 24.7594 1464.02 25.7078 1463.11 26.1185C1462.05 26.5879 1457.82 26.1185 1456.79 25.5319C1456.41 25.2874 1456.14 24.8865 1455.72 24.7887C1454.63 24.5345 1454.61 22.4812 1452.46 23.8892C1451.58 24.4661 1450.16 22.2953 1448.72 23.7816C1448.59 23.9185 1447.64 23.6447 1447.08 23.5469C1446.49 23.379 1445.88 23.2741 1445.27 23.234C1443.94 23.322 1442.36 23.9674 1441.37 23.6252C1440.73 23.3447 1440.04 23.1916 1439.34 23.1748C1438.64 23.158 1437.95 23.2779 1437.3 23.5274C1435.85 24.2119 1434.42 23.7425 1433.02 23.9478C1432.73 24.0169 1432.45 24.1186 1432.19 24.251C1429.94 25.0919 1428.73 24.5051 1425.95 23.5958C1422.15 22.354 1418.76 20.4962 1414.72 19.6846C1414.41 19.6259 1413.88 19.5379 1413.79 19.6259C1412.7 20.7602 1411.39 19.1469 1410.65 19.6749C1408.43 21.2198 1407.23 19.9877 1405.75 19.0099C1404.89 18.4747 1403.96 18.0445 1402.99 17.729C1402.52 17.5628 1401.77 17.8171 1401.32 17.641C1399.52 16.9566 1401.07 21.0535 1398.57 18.7166C1397.57 17.7388 1394.81 19.0491 1395 17.0055C1394.61 16.8054 1394.18 16.7077 1393.74 16.7219C1392.36 16.8295 1391.92 16.3503 1392.15 15.4703C1392.56 13.8961 1391.15 14.0525 1389.73 13.6419C1388.55 13.2518 1387.31 13.0601 1386.07 13.0748C1384.03 13.0879 1382 12.9243 1379.99 12.5859C1379.73 12.4544 1379.44 12.3684 1379.15 12.3316C1377.65 12.3316 1375.75 12.7423 1374.74 12.2338C1373.01 11.3538 1372.18 12.4098 1371.22 12.7423C1370.26 13.0747 1369.9 12.6543 1369.81 12.4001C1369.26 10.8845 1367.19 10.5422 1365.86 9.67201C1365.12 9.1929 1363.52 8.69421 1363.04 10.4054C1362.84 11.1485 1361.56 11.2463 1361.16 10.1511C1360.76 9.05599 1359.83 8.60624 1358.3 8.66491C1357.67 8.7348 1357.03 8.66801 1356.43 8.46934C1355.63 8.10337 1354.92 7.58089 1354.33 6.9342C1353.58 5.9564 1352.48 7.912 1351.73 6.63108C1351.43 6.12263 1350.2 5.91727 1349.4 5.56525C1349.26 5.51431 1349.14 5.42625 1349.05 5.31109C1347.34 2.80793 1344.75 3.45325 1341.91 4.05949C1339.77 4.69582 1337.46 4.5321 1335.43 3.59995C1333.81 2.74926 1331.54 2.94478 1329.95 1.72254C1329.36 1.34495 1328.67 1.16042 1327.96 1.19556C1327.26 1.2307 1326.58 1.48372 1326.03 1.91811C1324.61 3.27724 1322.76 2.8079 1321.03 2.82744C1319.46 2.82744 1317.94 3.0328 1316.46 2.04522C1314.46 0.734975 1311.84 1.46834 1309.46 1.5759C1309.21 1.5759 1308.96 2.06476 1308.76 2.03544C1308.01 1.99016 1307.25 2.10079 1306.54 2.36016C1305.82 2.61953 1305.18 3.02192 1304.63 3.54128C1303.55 2.56839 1302.34 1.72789 1301.04 1.03812C1300.16 0.656787 1299.04 -0.65347 1297.6 0.656772C1294.6 -0.819699 1292.02 0.539401 1289.34 1.36075C1288.67 1.45148 1288 1.45148 1287.34 1.36075C1280.98 1.30208 1276.51 3.61948 1273.2 7.36443C1272.49 8.15643 1272.1 8.71375 1270.42 8.00974C1269.67 7.75613 1268.87 7.71812 1268.11 7.90028C1267.34 8.08246 1266.65 8.47707 1266.11 9.03647C1265.35 9.76982 1265.21 9.67204 1262.96 9.59383C1262.57 9.60052 1262.2 9.73499 1261.91 9.97511C1260.97 10.7671 1260.18 11.6569 1259.17 12.4098C1258.26 13.0374 1257.3 13.5778 1256.29 14.0232C1255.81 14.2481 1254.86 14.5218 1254.65 14.3752C1252.92 13.1627 1250.85 13.945 1248.97 13.769C1247.1 13.5338 1245.21 14.0022 1243.68 15.0792C1242.05 16.1841 1239.68 16.7219 1237.54 17.377C1235.4 18.0321 1233.44 18.6971 1231.16 17.778C1230.68 17.7114 1230.19 17.8268 1229.8 18.1006C1227.42 20.2615 1223.15 20.3202 1220.73 22.442C1220.52 22.6278 1219.78 22.53 1219.29 22.442C1216.98 22.2762 1214.7 23.007 1212.94 24.4758C1211.78 25.3428 1210.6 26.2033 1209.41 27.0572C1208.28 27.859 1207.31 29.0128 1205.41 27.6145C1204.53 27.5408 1203.64 27.7465 1202.89 28.2012C1199.72 30.3817 1196.81 32.7773 1192.73 34.068C1191.2 36.2265 1189 37.8475 1186.45 38.6929C1186.15 38.8005 1186.45 39.6707 1186.17 40.0325C1185.76 40.7463 1185.36 41.773 1184.59 41.9881C1183.3 42.2376 1181.96 42.2376 1180.67 41.9881C1179.82 41.8805 1180.67 40.3552 1179.06 40.6388C1177.73 40.8454 1176.44 41.2166 1175.21 41.7436C1171.41 43.5232 1167.1 44.589 1163.37 46.4371C1162.98 46.6422 1162.55 46.7841 1162.11 46.8575C1161.77 46.9081 1161.42 46.8463 1161.11 46.6815C1160.02 45.342 1159.04 45.9286 1158.28 46.8086C1157.03 48.2362 1155.14 47.9526 1153.39 47.8548C1152.71 47.8548 1152.09 47.2486 1151.39 46.9455C1151.02 46.7333 1150.63 46.5721 1150.21 46.4664C1147.94 48.2264 1145.71 46.4664 1143.51 46.3686C1140.37 46.2904 1138.51 47.7277 1136.45 48.9207C1135.95 49.2683 1135.38 49.4955 1134.77 49.5839C1134.17 49.6723 1133.55 49.6193 1132.97 49.4291C1131.2 49.0185 1129.26 49.126 1127.36 48.8033C1125.55 48.6401 1123.82 47.9904 1122.36 46.926C1122.09 46.6639 1121.74 46.499 1121.36 46.4581C1120.99 46.4173 1120.6 46.5029 1120.28 46.701C1118.47 47.5028 1116.6 48.7251 1114.39 47.1704C1111.98 47.3855 1109.48 46.7011 1107.12 47.5811C1105.47 48.1971 1105.12 47.5811 1102.95 47.5028C1100.56 47.5028 1100.3 46.9944 1100.15 45.6255C1100.08 44.9508 1097.34 44.5792 1096.46 45.2246C1094.86 46.6413 1092.76 47.4039 1090.59 47.3562C1090.1 47.4534 1089.64 47.6623 1089.24 47.9662C1088.85 48.2702 1088.53 48.6607 1088.31 49.1064C1087.84 50.798 1086.52 50.0842 1085.43 49.83C1084.86 49.6833 1084.54 49.0869 1083.98 48.8522C1082.72 48.3144 1081.35 47.8744 1079.98 48.6371C1079.04 49.1556 1077.98 49.4157 1076.9 49.39C1075.51 49.39 1073.9 48.8913 1072.8 50.0549C1067.8 49.0771 1065.13 52.3918 1061.22 53.4283C1060.36 53.6532 1059.55 54.406 1058.83 54.406C1057.86 54.3141 1056.98 53.8535 1056.37 53.1251C1055.85 52.1474 1055.37 52.2158 1054.3 52.5874C1053.3 52.91 1051.73 53.2914 1051.14 52.9492C1049.79 52.1865 1048.38 52.9491 1047.59 52.6851C1046.36 52.3149 1045.08 52.2016 1043.81 52.3527C1041.73 52.5678 1039.76 50.5242 1037.68 52.2256C1037.55 52.1512 1037.44 52.0661 1037.33 51.9714C1036.27 50.7785 1034.67 50.798 1032.97 50.8274C1031.91 50.8242 1030.86 50.6111 1029.89 50.2011C1028.91 49.791 1028.04 49.1925 1027.31 48.4415C1026.55 47.5811 1025.86 47.0726 1024.51 47.894C1024.09 47.9018 1023.68 47.7746 1023.35 47.5322C1023.35 46.7891 1023.04 46.2904 1021.98 46.5544C1021.6 46.6424 1021.58 47.4148 1021.17 47.63C1020.65 47.8559 1020.07 47.8873 1019.54 47.718C1018.45 46.9748 1017.54 46.1242 1016.32 47.5811C1012.44 48.0993 1009.83 49.9766 1007.32 51.9616C1007.12 52.0935 1006.89 52.1712 1006.65 52.1865C1004.96 50.6416 1003.71 52.3234 1002.56 52.6754C1001.41 53.0274 1000.08 53.8194 1000.24 55.1981C1000.24 55.6381 999.419 56.1758 998.969 56.6061C998.759 56.1367 998.319 55.6283 998.369 55.1981C998.469 54.1127 997.989 53.7607 996.449 53.7509C995.249 53.7509 993.729 52.8709 992.939 53.174C991.967 53.6594 990.876 53.8694 989.789 53.7802C987.499 53.438 985.669 54.7581 985.539 55.6479C985.319 57.2319 983.919 57.887 982.889 58.9137C982.469 59.3341 982.569 60.0186 982.319 60.5564C981.839 61.5342 980.91 61.7297 979.69 60.9573C978.86 60.4195 977.94 59.9208 977.32 60.8009C976.57 61.8667 974.32 61.5146 973.98 63.04C973.89 63.4507 971.79 63.9395 970.75 63.8124C970.04 63.7342 969.62 63.3138 968.94 63.9102C967.76 64.9369 966.5 65.8658 964.33 65.4943C964.08 65.4943 963.33 65.8951 963.39 66.0418C963.86 67.7921 962.32 67.7138 960.751 67.6552L960.251 67.6552C958.251 67.6552 956.021 67.2543 954.321 67.7725C952.781 68.2418 951.921 69.7868 950.571 70.7059C949.221 71.625 948.571 72.9157 946.241 72.7886C945.651 72.7886 944.891 73.3948 944.381 73.8348C943.763 74.4475 942.967 74.8589 942.1 75.0129C941.234 75.1669 940.341 75.056 939.542 74.6953C937.932 73.913 936.942 73.9717 935.782 74.9886C934.622 76.0055 933.432 77.1398 932.312 78.2545C931.805 78.8108 931.331 79.3952 930.892 80.0047C929.722 78.8411 929.122 79.8874 928.422 80.3567C927.722 80.826 927.062 81.4519 926.272 81.8723C925.713 82.1255 925.096 82.2332 924.482 82.1852C923.939 82.1033 923.383 82.1493 922.861 82.3194C922.34 82.4894 921.867 82.7786 921.482 83.163C920.482 84.0723 918.883 84.0723 917.813 84.571C916.203 85.3239 915.513 85.0403 914.593 84.2092C912.983 82.7425 911.783 82.3905 910.233 83.427C908.303 84.7275 906.713 84.5808 904.623 83.7008C903.473 83.2216 901.903 82.3416 900.463 83.6323C900.305 83.6974 900.135 83.7309 899.963 83.7309C899.792 83.7309 899.622 83.6974 899.463 83.6323C896.464 81.9603 895.024 83.7301 892.934 84.8741C890.844 86.0181 888.504 86.6439 888.194 88.9124C888.084 89.724 887.034 90.4866 886.324 91.2396C886.01 91.3809 885.653 91.4018 885.324 91.2982C882.494 88.9417 879.404 90.428 877.234 91.5427C874.776 92.8571 872.194 93.9377 869.525 94.7694C868.824 95.0451 868.087 95.2197 867.335 95.2876C864.385 95.2876 864.425 95.2876 862.975 96.6174C862.335 97.2041 861.355 98.1819 861.155 96.3632C860.631 96.0908 860.032 95.9913 859.445 96.0796C857.995 96.6761 856.225 96.8227 855.245 98.1036C853.926 99.8539 851.896 100.216 849.306 99.2868C848.06 98.8801 846.896 98.2647 845.866 97.4681C844.866 96.6467 844.466 97.2041 843.626 97.4681C842.156 97.9179 840.626 97.2334 840.436 96.373C840.411 96.1658 840.334 95.9678 840.213 95.7961C840.092 95.6244 839.93 95.4843 839.74 95.3879C839.551 95.2916 839.341 95.2418 839.127 95.2431C838.914 95.2444 838.704 95.2966 838.516 95.3952C837.716 95.8228 836.817 96.0427 835.905 96.0342C834.993 96.0256 834.098 95.7888 833.307 95.3463C832.147 96.021 831.147 96.0308 830.307 95.0138C829.985 94.8944 829.629 94.8944 829.307 95.0138C828.227 95.7765 827.247 96.7641 825.807 95.3365C823.187 96.5783 819.727 94.4565 817.277 96.461C817.032 96.6207 816.757 96.7304 816.467 96.7837C812.607 97.7614 811.717 97.4388 811.408 94.3587C811.248 92.7551 810.658 93.6156 809.608 93.8014C808.558 93.9871 807.398 93.9969 806.608 94.7792C805.818 95.5614 805.338 95.5516 805.328 94.5054C805.318 93.4591 805.668 92.98 803.678 93.7818C802.228 94.3685 800.028 94.0067 798.158 94.5738C796.538 95.0627 794.908 94.3489 792.318 92.804C791.865 92.5018 791.327 92.345 790.779 92.3555C790.231 92.366 789.699 92.5433 789.259 92.8627C788.831 93.2565 788.345 93.586 787.819 93.8405C787.499 93.9383 786.909 93.4885 786.429 93.4885C785.949 93.4885 785.089 93.9285 784.769 93.772C784.175 93.4625 783.691 92.9855 783.379 92.4031C783.159 91.9827 783.379 91.4253 783.329 90.956C783.329 90.252 783.039 90.3791 782.229 90.6235C780.719 91.0733 777.569 90.1933 775.749 89.5284C773.929 88.8635 773.209 86.9568 770.669 87.2012C769.67 86.2235 768.23 86.5852 767.01 86.6439C765.63 86.7123 763.8 87.6217 763.01 87.2208C761.57 86.4973 760.23 86.7319 758.82 86.5852C758.236 86.4819 757.666 86.3146 757.12 86.0866C755.84 85.4837 754.372 85.3857 753.02 85.8128C752.36 86.0572 751.22 85.6074 750.29 85.4901C749.73 85.4119 748.86 85.1772 748.631 85.3532C746.521 87.0448 744.781 84.5221 742.821 85.1381C741.88 84.152 741.073 83.051 740.421 81.8625C739.941 80.6305 739.231 80.0927 737.481 80.0242C734.091 79.8776 731.011 80.21 728.761 82.2927C728.161 82.8501 727.761 82.9381 726.951 82.3612C725.857 81.6684 724.71 81.0572 723.522 80.5327C721.882 79.7113 720.232 79.8091 719.522 81.1194C719.093 82.0273 718.372 82.7735 717.47 83.2446C716.567 83.7158 715.532 83.8863 714.522 83.7301C713.935 83.7664 713.383 84.0137 712.972 84.4243C712.112 85.3337 711.482 84.9914 710.822 84.3363C709.192 82.7425 708.422 82.6154 707.542 84.1701C706.842 85.4217 706.292 85.5683 705.332 84.6492C704.373 83.7301 703.493 84.1212 702.463 84.043C701.643 83.9745 701.293 82.2927 699.983 83.6518C698.553 81.5887 694.723 82.8403 692.983 80.9336C692.373 80.2491 690.883 80.8749 690.393 81.9114C689.513 83.7887 688.753 85.7541 685.303 85.8812C683.304 87.6608 679.824 87.5337 677.584 89.0297C677.244 89.2993 676.83 89.4629 676.394 89.4991C673.934 89.0297 672.784 90.3595 671.394 91.3569C670.006 92.461 668.361 93.2133 666.604 93.5471C665.324 93.7916 663.874 93.4787 662.914 93.9871C661.955 94.4956 661.565 95.532 660.705 96.1872C659.335 97.2236 658.845 97.1063 657.325 95.6787C655.805 94.2511 652.035 94.1534 650.535 95.6787C650.135 96.0894 650.375 96.6565 649.275 96.8814C644.805 97.9667 644.395 101.643 641.506 103.785C641.006 104.156 641.586 105.212 641.365 105.906C641.016 106.953 639.456 107.06 638.366 106.229C638.006 105.936 637.316 105.535 636.986 105.623C635.751 105.917 634.556 106.354 633.426 106.923C632.706 107.314 632.426 108.097 631.746 108.566C630.346 109.544 629.016 110.795 627.316 111.314C625.616 111.832 624.216 110.512 622.686 109.964C621.821 109.702 620.939 109.493 620.047 109.339C619.737 109.317 619.43 109.275 619.127 109.211C617.917 108.771 619.207 111.715 616.847 110.043C615.977 109.427 614.337 110.043 613.517 110.952C612.947 111.597 612.517 110.874 612.107 110.883C610.237 110.962 608.607 109.329 606.637 110.483C606.187 110.003 605.817 109.935 605.207 110.483C603.137 112.174 603.107 112.223 600.767 112.164C597.847 112.086 595.198 113.279 592.178 112.995C591.178 112.907 589.928 113.739 589.018 114.335C587.338 115.44 585.778 116.525 583.268 116.594C581.728 116.594 582.368 117.767 582.478 118.324C582.838 120.192 582.548 120.71 580.478 120.925C578.419 121.108 576.462 121.887 574.859 123.164C573.739 124.054 571.199 123.859 571.309 125.687C570.939 125.889 570.523 125.997 570.099 126C568.979 125.022 566.199 125.746 565.829 123.849C565.739 123.399 564.999 122.871 564.069 123.644C563.519 124.084 562.409 124.045 562.429 123.135C562.429 121.395 561.229 120.837 559.049 120.916C557.959 120.954 556.873 120.757 555.869 120.339C554.87 119.948 554.26 119.801 554.4 118.94C554.54 118.08 553.84 117.963 552.88 117.963C552.44 117.963 551.72 117.894 551.59 117.689C551.264 117.107 551.009 116.49 550.83 115.851C550.173 116.124 549.479 116.302 548.77 116.379C547.88 116.379 547.01 115.86 546.13 115.841C545.43 115.841 544.72 116.388 544 116.428C542.12 116.506 540 117.063 538.58 115.567C537.82 114.785 537.06 114.961 536.15 115.567C535.49 116.007 534.61 116.007 534.431 115.117C534.35 114.755 534.49 114.374 534.431 114.022C534.261 113.387 535.061 112.477 533.731 112.164C533.131 112.021 532.501 112.052 531.92 112.256C531.338 112.459 530.831 112.825 530.461 113.308C530.263 113.609 530.118 113.939 530.031 114.286C529.858 114.006 529.661 113.741 529.441 113.494C528.951 113.035 528.441 112.233 527.901 112.233C526.301 112.233 526.421 111.558 526.451 110.815C526.437 110.646 526.377 110.483 526.279 110.343C526.18 110.203 526.046 110.09 525.89 110.016C525.733 109.942 525.56 109.909 525.386 109.92C525.213 109.932 525.046 109.988 524.901 110.082C524.289 110.431 523.609 110.651 522.905 110.729C522.2 110.806 521.487 110.739 520.811 110.531C520.301 110.434 520.161 109.554 519.611 109.28C519.061 109.006 517.811 109.143 517.441 108.791C516.361 107.754 514.971 107.813 513.442 107.764C512.986 107.707 512.523 107.74 512.082 107.863C511.64 107.986 511.228 108.195 510.872 108.478C510.74 107.79 510.49 107.129 510.132 106.522C508.842 104.948 505.772 104.371 502.692 105.036C501.671 105.215 500.667 105.48 499.692 105.828C498.092 106.503 496.822 107.09 496.192 105.095C495.942 104.283 493.702 105.603 493.492 104.234C493.232 102.582 492.183 104.332 491.823 103.99C491.463 103.648 489.823 103.335 491.203 102.416C491.422 102.269 490.953 101.438 490.583 100.969C489.773 99.9908 489.363 101.105 488.803 101.252C488.11 101.469 487.44 101.75 486.803 102.093C486.441 102.3 486.067 102.486 485.683 102.65C483.573 101.066 481.523 102.65 479.473 102.65C479.174 102.655 478.882 102.562 478.643 102.386C477.573 101.213 476.033 101.154 474.303 101.164C473.133 101.164 473.783 99.2085 471.704 99.717C471.168 99.8536 470.605 99.8428 470.075 99.6857C469.546 99.5287 469.071 99.2316 468.704 98.8272C467.954 98.0841 467.424 97.0574 466.424 96.6369C463.694 95.3212 460.897 94.1431 458.044 93.1071C456.604 92.6671 455.674 92.1293 454.194 92.9604C453.254 93.4689 452.194 92.9604 451.124 92.716C449.604 92.4324 449.745 91.2297 448.655 91.0342C447.565 90.8386 446.185 91.2591 446.405 89.851C446.045 89.851 445.695 89.939 445.345 90.0075C444.995 90.0759 444.155 90.3497 444.035 90.2422C442.215 88.5799 440.365 89.8804 438.935 90.4377C437.715 90.9071 436.995 91.2688 436.115 90.3595C435.015 89.2057 433.335 88.9417 431.655 88.5017C430.235 88.1301 428.235 88.1497 427.796 86.5461C427.725 86.2626 426.495 85.8225 426.276 85.9399C424.046 87.1034 421.476 84.9621 419.276 86.3603C419.053 86.4404 418.809 86.4404 418.586 86.3603C417.036 85.8519 415.686 84.9621 413.816 85.0794C412.106 83.2607 410.516 83.6518 408.916 85.187C408.106 85.9692 407.437 85.9399 406.077 85.451C405.017 85.0794 403.177 85.715 401.767 86.0768C400.56 86.4373 399.408 86.95 398.337 87.6021L398.447 87.6901C398.257 87.8074 398.067 87.915 398.157 87.6901C397.757 87.9346 397.537 87.8172 397.567 87.7879C397.698 87.63 397.845 87.4858 398.007 87.3577C397.377 85.9105 395.867 86.7123 394.717 86.8003C393.867 86.859 393.137 87.4945 392.287 87.7781C390.417 88.3746 388.457 88.3159 388.007 87.2892C387.287 85.6661 385.877 85.8714 384.287 85.8714C383.678 85.8714 382.598 85.7345 382.548 85.5487C381.918 83.0945 380.778 84.6785 379.698 85.3043C378.208 86.1843 376.698 87.035 375.178 87.8857C373.738 86.9079 372.438 87.8074 371.118 88.0812C370.387 88.2053 369.679 88.436 369.018 88.7657C367.628 89.587 367.638 89.5479 364.768 89.5577C363.855 89.5733 362.956 89.7765 362.129 90.1542C357.129 92.5204 355.819 92.3835 352.129 88.971C351.408 88.37 350.523 87.9886 349.583 87.874C348.643 87.7593 347.689 87.9163 346.839 88.3257C345.279 89.1763 344.889 87.3479 343.99 88.0812C343.638 88.3824 343.222 88.6029 342.772 88.7264C342.322 88.8499 341.85 88.8734 341.39 88.795C337.12 88.1399 335.39 91.0439 332.39 92.188C332.39 93.8307 331.52 92.892 330.88 92.4324C330.24 91.9728 329.88 91.4546 329.08 92.276C328.49 92.8529 327.66 93.3027 326.99 93.8404C326.14 94.5249 325.61 94.6813 323.86 94.6324C323.695 94.6573 323.526 94.6573 323.36 94.6324C321.181 93.948 320.761 96.7445 318.781 95.9525C317.217 95.3606 315.484 95.3606 313.921 95.9525C312.46 96.2261 311.072 96.7884 309.841 97.605C309.113 98.3104 308.187 98.79 307.181 98.9836C303.631 98.9836 301.671 100.695 299.511 102.259C298.641 102.885 294.772 103.902 294.082 103.374C292.082 101.888 290.492 103.159 288.882 103.511C286.532 104.029 284.352 104.929 282.012 105.466C281.107 105.54 280.195 105.434 279.333 105.154C277.243 104.733 275.223 104.371 273.543 105.838C273.242 106.012 272.886 106.071 272.543 106.004C270.534 105.393 268.38 105.414 266.383 106.063C265.193 106.425 264.953 106.405 264.383 105.457C262.873 102.972 260.487 101.111 257.673 100.225C256.913 99.9712 256.524 99.6094 255.564 100.01C253.364 100.91 253.304 100.783 250.184 100.509C249.184 100.421 247.864 100.196 247.244 100.509C245.444 101.536 243.474 100.998 241.604 101.203C240.384 101.34 239.224 101.809 238.014 101.878C237.448 101.83 236.883 101.976 236.416 102.292C235.948 102.608 235.608 103.074 235.455 103.609C235.319 103.797 235.127 103.941 234.905 104.019C232.005 102.504 230.595 105.046 228.355 105.29C227.752 105.436 227.135 105.518 226.515 105.535C225.305 105.388 223.515 104.626 223.065 104.938C221.665 105.975 220.835 105.427 219.745 104.85C219.419 104.758 219.072 104.758 218.745 104.85C217.745 105.017 216.425 105.613 215.805 105.339C213.599 104.418 211.501 103.267 209.546 101.907C208.786 101.36 208.486 100.509 207.146 100.46C205.806 100.411 204.576 100.46 203.636 101.379C203.11 101.916 202.395 102.238 201.636 102.279C200.496 101.995 198.866 101.428 198.636 100.773C198.286 99.6485 197.126 99.2379 196.306 98.5534C194.626 97.1356 191.377 97.3311 190.097 95.444C187.987 95.444 185.737 95.2093 183.797 95.6494C182.457 95.9427 181.557 96.2262 180.317 95.6494C179.839 95.3858 179.292 95.2673 178.746 95.3091C178.199 95.3509 177.677 95.5511 177.247 95.884C176.849 96.0592 176.407 96.1138 175.977 96.0405C174.697 93.7915 171.138 94.4369 169.188 93.1071C168.183 92.3047 167.286 91.3816 166.518 90.3595C166.438 90.2715 166.518 90.0955 166.518 89.9977C165.98 88.9175 165.308 87.9061 164.518 86.9861C163.018 85.5781 161.808 88.1985 160.198 87.3185C159.298 89.1763 156.978 86.6048 155.938 88.0421C154.398 87.8172 152.728 88.5212 151.229 87.4945C150.229 86.8003 149.499 87.7292 148.879 88.2083C148.558 88.5245 148.13 88.7136 147.676 88.7388C147.221 88.7641 146.773 88.6239 146.419 88.3452C144.989 87.5239 142.229 87.7683 142.529 85.5976C142.529 85.4705 141.829 85.1576 141.439 85.1478C139.039 85.0696 136.639 85.3043 134.319 84.4536C133.649 84.2091 132.499 84.6589 131.569 84.7567C131.215 84.7793 130.86 84.7629 130.509 84.7078C129.769 84.61 129.719 83.1336 128.33 84.1309C128.22 84.2092 127.25 83.5638 126.62 83.3487C126.085 83.1336 125.506 83.0464 124.93 83.0945C123.31 83.4367 121.77 83.9843 120.14 84.3167C119.557 84.3789 118.971 84.233 118.49 83.906C117.75 83.3291 117.29 82.5567 116.56 81.9504C116.107 81.6629 115.567 81.5353 115.03 81.5887C113.71 82.5665 113.59 82.0287 113.57 81.0802C113.568 80.5173 113.446 79.961 113.21 79.4473C110.94 79.4962 111.21 77.3548 109.58 77.1397C106.581 76.7486 103.581 76.6019 100.511 76.377C99.8508 76.3281 99.1609 76.4454 98.5109 76.377C98.3259 76.3467 98.1505 76.2755 97.9979 76.1687C97.8455 76.062 97.72 75.9225 97.6311 75.761C97.3311 74.6268 96.5612 74.7832 95.6311 75.3015C95.1268 75.5999 94.6546 75.9472 94.2212 76.3379C93.5213 76.9539 93.0111 77.2668 92.0112 76.4552C91.2465 76.161 90.3963 76.161 89.6315 76.4552C87.6915 77.433 85.5715 77.1495 83.5116 77.1103C81.9417 77.1103 81.0818 77.5504 80.6018 78.577C79.8019 80.298 78.3019 81.1193 75.712 81.6278C72.5222 82.2438 69.7123 83.5345 69.4623 86.6634C69.3124 88.4723 67.0524 89.8804 64.8925 90.9755C64.5891 91.0482 64.2692 91.0099 63.9927 90.8679C63.6013 90.502 63.2401 90.1064 62.9126 89.6848C62.5226 90.115 62.2527 90.6626 61.7227 90.9657C60.2328 91.787 58.4327 91.7088 56.6629 91.7382C53.4931 91.7382 53.4031 91.8848 52.0032 90.8484C51.8875 90.7213 51.7442 90.6208 51.584 90.5541C51.4238 90.4875 51.2506 90.4563 51.0767 90.4628C50.9027 90.4693 50.7324 90.5135 50.578 90.592C50.4235 90.6704 50.2887 90.7814 50.1832 90.9168C49.8842 91.0332 49.5551 91.0537 49.2433 90.9755C48.1934 90.7799 49.0733 89.3914 47.1533 89.4012C46.1533 89.4012 45.4635 90.9755 44.3836 89.7141C43.5292 89.9878 42.6096 89.9997 41.7482 89.748C40.8867 89.4964 40.1245 88.9932 39.5637 88.3061C38.4638 87.0839 37.5639 87.7879 36.4739 88.0616C34.754 88.5017 34.2841 90.4279 32.2341 90.1932C30.7865 89.9001 29.3822 89.4303 28.0542 88.795C25.9443 88.0225 24.0545 86.8394 21.3746 87.3088C21.2146 87.3088 20.8046 86.859 20.6646 86.5754C19.8446 84.9914 19.8447 84.9816 17.8547 86.1158C17.3547 86.3994 17.2247 86.8296 16.5949 86.0474C14.8855 83.9441 13.0454 81.9456 11.0851 80.0633C9.89515 78.9095 8.18519 78.0491 6.92518 76.9246C5.66529 75.8001 3.56544 76.8757 1.98549 75.7806C0.795544 74.9494 -1.48424 75.8392 -2.87426 76.5334C-4.04418 77.1201 -4.53429 76.8757 -5.73424 76.6019C-9.984 75.6241 -12.7938 73.2285 -16.2637 71.5174C-16.6636 71.312 -16.8236 70.7645 -17.6936 70.5396C-19.1836 70.1191 -19.6935 72.2409 -21.1634 71.0774C-22.0034 70.4125 -23.3734 71.6445 -24.0734 70.608C-25.8533 70.9894 -27.7031 71.2534 -29.3931 71.7912C-31.0829 72.329 -33.163 72.8667 -34.1029 73.8836C-35.3129 75.2037 -37.6727 75.673 -38.3126 77.2668C-38.5626 77.8926 -38.8126 78.1175 -39.3126 77.3744C-39.5826 76.9735 -39.9325 76.5921 -40.1625 76.1717C-41.2225 74.2161 -41.5824 73.8836 -43.8723 74.3236C-45.5741 74.5882 -47.3133 74.5083 -48.9822 74.089C-49.8113 73.9782 -50.5998 73.6696 -51.2782 73.1905C-51.9565 72.7113 -52.5038 72.0763 -52.8719 71.3414C-53.0627 71.0305 -53.3148 70.7598 -53.6135 70.5449C-53.9122 70.33 -54.2515 70.1753 -54.6118 70.0898C-55.4017 69.9138 -56.9818 69.9529 -57.1918 70.2658C-58.1918 71.84 -60.3717 72.2214 -62.1016 73.033C-63.8315 73.8445 -65.4514 74.7832 -67.1013 75.7219C-67.8757 76.1941 -68.6141 76.7201 -69.3111 77.2961C-69.5212 77.4526 -69.6912 77.8632 -69.7911 77.8437C-72.131 77.4526 -73.571 78.8215 -75.4709 79.3104C-77.4589 79.7627 -79.4899 80.0085 -81.5306 80.0437C-84.5304 80.0926 -86.7904 81.3833 -89.4203 81.9993C-92.5553 82.8122 -95.8008 83.1421 -99.0398 82.9771C-100.19 82.8793 -101.38 83.0358 -102.53 82.9771C-103.68 82.9184 -105.43 83.6713 -105.319 81.8918C-105.655 81.8804 -105.99 81.9066 -106.319 81.97C-109.646 83.2992 -113.229 83.9064 -116.819 83.7496C-119.209 83.642 -121.399 84.8838 -123.899 84.4731C-124.529 84.3656 -125.659 84.5513 -125.779 84.3558C-127.108 82.1166 -130.188 82.2438 -132.638 81.53C-132.888 81.4518 -133.048 81.2073 -133.238 81.0313L-134.238 80.0535C-134.533 80.3977 -134.868 80.7063 -135.238 80.9726C-135.668 81.2171 -136.438 81.5495 -136.738 81.4224C-137.568 81.0802 -138.148 80.2686 -138.988 80.1317C-139.828 79.9948 -140.668 80.6108 -141.558 80.738C-141.858 80.738 -142.278 80.1513 -142.658 80.1415C-143.18 80.1532 -143.69 80.2982 -144.138 80.5619C-143.758 82.1851 -144.988 82.322 -146.718 82.2927C-147.178 82.2927 -147.717 82.9282 -148.127 83.2704C-148.787 83.7691 -149.127 83.6909 -149.208 82.9771C-149.192 82.7361 -149.192 82.4945 -149.208 82.2535C-149.547 80.0828 -150.387 79.6624 -153.277 80.5131C-154.477 80.8748 -154.527 80.5131 -155.277 79.9655C-156.567 78.9877 -157.497 77.2765 -160.277 77.8143C-161.577 78.0588 -162.887 77.3157 -164.477 77.7655C-166.113 78.0439 -167.783 78.067 -169.427 77.8339C-170.826 77.7655 -172.166 78.0099 -173.636 77.2961C-174.365 77.0082 -175.162 76.9261 -175.936 77.0592C-176.711 77.1923 -177.431 77.5353 -178.016 78.049C-179.338 79.1775 -180.879 80.0353 -182.546 80.5717C-183.906 80.9824 -184.026 81.3931 -184.236 82.2731C-184.446 83.1531 -185.016 84.346 -186.726 82.9869C-187.169 82.9257 -187.62 83.0229 -187.996 83.2607C-188.895 84.0527 -189.656 84.9425 -190.505 85.7638C-191.045 86.2918 -191.325 86.3505 -193.115 86.6047C-193.278 86.5899 -193.442 86.5899 -193.605 86.6047C-195.785 87.2403 -195.865 87.2207 -197.505 85.9692C-198.303 85.3267 -199.138 84.7293 -200.005 84.1798C-200.495 83.8953 -201.055 83.7465 -201.625 83.7496C-203.235 85.1771 -204.085 83.9647 -205.175 83.3096C-206.208 82.5162 -207.39 81.9282 -208.655 81.5788C-210.21 81.5303 -211.749 81.2602 -213.224 80.777C-214.394 80.249 -215.314 81.618 -216.984 80.8846C-218.504 80.2197 -218.894 80.6695 -219.574 80.073C-221.144 78.6943 -223.724 78.1175 -226.464 78.4401C-227.744 78.577 -229.094 78.4401 -230.384 78.5966C-231.674 78.753 -232.764 79.2126 -233.973 79.2713C-235.883 79.3593 -237.913 79.6135 -239.333 78.1174C-239.989 77.6171 -240.776 77.3086 -241.603 77.2277C-243.123 78.4597 -245.123 77.4819 -246.743 77.9512C-246.883 77.9512 -247.083 78.1175 -247.083 78.2055C-247.023 79.6722 -247.473 80.6402 -249.953 80.8455C-251.363 80.9628 -252.603 81.9797 -253.953 82.4784C-256.072 83.2509 -256.392 83.202 -258.052 81.9113C-258.772 81.3539 -259.242 81.5398 -260.052 81.8135C-262.052 82.4687 -262.052 82.3708 -263.052 80.7184C-263.401 80.1403 -263.916 79.6746 -264.532 79.3788C-264.852 79.2321 -265.612 79.7308 -266.202 79.7797C-267.102 79.8367 -268.005 79.8204 -268.902 79.7308C-269.341 79.6735 -269.764 79.527 -270.142 79.3006C-271.432 78.5477 -273.041 78.0197 -273.982 77.0321C-275.651 75.2818 -276.781 77.697 -278.541 77.2374C-279.951 76.8659 -282.141 76.5432 -283.541 77.8339C-283.84 77.946 -284.172 77.946 -284.471 77.8339C-286.311 76.1423 -288.301 77.4232 -289.531 78.0784C-291.531 79.1344 -292.451 78.2837 -292.861 77.3548C-293.461 75.9859 -293.861 76.3085 -295.191 76.8757C-296.681 77.5308 -298.73 77.3059 -299.99 78.5477C-300.99 79.5255 -302.61 80.249 -302.99 81.6082C-303.19 82.4197 -303.52 81.9797 -304.16 81.8331C-305.431 81.6383 -306.714 81.5337 -308 81.5202L-308 206.482L1611 206.482ZM1249.42 15.2454C1249.69 15.3133 1249.95 15.4257 1250.19 15.5779C1249.11 16.1939 1248.06 16.8392 1246.92 17.3868C1246.69 17.4944 1246.09 17.201 1246.05 17.1912C1246.25 16.5096 1246.71 15.9288 1247.33 15.5672C1247.96 15.2057 1248.7 15.0906 1249.41 15.2454L1249.42 15.2454Z" fill="#F8F7FC"/>
</svg>
