<svg width="150" height="150" viewBox="0 0 150 150" fill="none" xmlns="http://www.w3.org/2000/svg">
<rect width="150" height="150" fill="#1C2F54"/>
<path d="M74.6525 9.16162C51.2603 9.20842 29.661 21.708 17.9622 41.9659C17.0783 43.5569 17.6346 45.5587 19.2101 46.4686C20.7855 47.3733 22.7977 46.8482 23.7284 45.2831C32.3803 30.2261 47.2564 19.7692 64.3527 16.7277C81.4543 13.6859 99.0178 18.3759 112.328 29.5288C125.645 40.6817 133.334 57.1539 133.334 74.5204C133.334 91.8868 125.644 108.364 112.328 119.517C99.0178 130.67 81.4543 135.354 64.3527 132.318C47.2564 129.277 32.3803 118.82 23.7284 103.758C22.7977 102.198 20.7855 101.673 19.2101 102.577C17.6346 103.487 17.0782 105.489 17.9622 107.08C25.621 120.412 37.7313 130.613 52.1694 135.9C66.6035 141.188 82.4406 141.214 96.896 135.978C111.351 130.742 123.496 120.578 131.202 107.273C138.907 93.9722 141.674 78.3736 139.017 63.2327C136.36 48.0918 128.451 34.3698 116.68 24.4813C104.909 14.5927 90.0278 9.16861 74.6526 9.16329L74.6525 9.16162Z" fill="white"/>
<path d="M79.3104 86.1253C81.151 86.1253 82.6381 84.6383 82.6381 82.7977V77.8477H86.2309C88.0715 77.8477 89.5586 76.3554 89.5586 74.52C89.5586 72.6846 88.0715 71.1923 86.2309 71.1923H42.3934C40.6881 62.7275 32.8419 56.9352 24.2469 57.7991C15.6574 58.657 9.11133 65.8843 9.11133 74.52C9.11133 83.1557 15.6575 90.3837 24.2469 91.2409C32.8417 92.104 40.6883 86.3118 42.3934 77.8477H62.281V86.7648C62.281 88.6054 63.7732 90.0925 65.6086 90.0925C67.444 90.0925 68.9363 88.6054 68.9363 86.7648V77.8477H75.9817V82.7977C75.9817 84.6383 77.475 86.1253 79.3104 86.1253ZM25.9278 84.6694C21.8203 84.6694 18.1182 82.1996 16.5479 78.4041C14.9776 74.6136 15.846 70.2461 18.7472 67.3395C21.6537 64.4382 26.0161 63.5699 29.8117 65.1402C33.6022 66.7105 36.0771 70.4124 36.0771 74.5201C36.0719 80.1251 31.5328 84.6642 25.9278 84.6694Z" fill="white"/>
</svg>
