<svg xmlns="http://www.w3.org/2000/svg" width="14.596" height="18.245" viewBox="0 0 14.596 18.245">
    <path fill="#223e92" d="M13.122 2h-7.3a1.822 1.822 0 0 0-1.813 1.824L4 18.42a1.822 1.822 0 0 0 1.815 1.824h10.956A1.83 1.83 0 0 0 18.6 18.42V7.473zm.912 9.122h-3.648v.912h2.737a.915.915 0 0 1 .912.912v2.737a.915.915 0 0 1-.912.912h-.913v.912h-1.824V16.6H8.561v-1.829h3.649v-.912H9.473a.915.915 0 0 1-.912-.912V10.21a.915.915 0 0 1 .912-.91h.912v-.914h1.825V9.3h1.824zM12.21 7.473V3.368l4.105 4.105z" transform="translate(-4 -2)"/>
</svg>
