<svg width="1919" height="207" viewBox="0 0 1919 207" fill="none" xmlns="http://www.w3.org/2000/svg">
<path d="M1919 207L1919 18.0413C1919 17.5524 1919 17.0635 1919 16.5746C1919 13.7097 1916.69 12.6634 1913.24 14.355C1910.93 15.4697 1908.24 15.6457 1905.93 16.4768C1905.41 16.6626 1902.99 16.0466 1901.68 15.939C1899.8 15.6958 1897.88 15.792 1896.03 16.2226C1893.96 16.9069 1891.78 17.2377 1889.59 17.2004C1887.53 17.2004 1885.22 16.7311 1883.78 18.4129C1883.55 18.4575 1883.32 18.4229 1883.11 18.3151C1882.92 18.1309 1882.69 17.9945 1882.43 17.9172C1882.17 17.8399 1881.9 17.8241 1881.63 17.8711C1881.37 17.918 1881.12 18.0264 1880.91 18.187C1880.7 18.3476 1880.53 18.5558 1880.41 18.7942C1880.21 19.3121 1879.81 19.7359 1879.3 19.9821C1878.79 20.2283 1878.21 20.2789 1877.66 20.124C1877.06 20.1226 1876.46 20.2671 1875.93 20.5445C1872.44 22.0894 1870.5 21.9916 1867.41 19.9773C1866.6 19.4591 1866.03 19.0778 1864.94 19.7329C1864.27 20.0843 1863.48 20.1949 1862.73 20.0458C1861.25 18.9409 1859.44 18.8431 1857.56 18.4716C1856.04 18.1782 1854.67 17.2689 1852.83 17.132C1851.34 17.0244 1852.34 15.9488 1852.03 15.3524C1851.8 14.9701 1851.53 14.6042 1851.24 14.2573C1850.83 14.4949 1850.43 14.7629 1850.05 15.0591C1849.11 15.9293 1849.13 15.9488 1848.05 14.8635C1847.25 14.0715 1846.56 13.9932 1846.12 14.8635C1845.68 15.7337 1845.7 16.0564 1844.82 15.1959C1844.47 14.8439 1844.06 14.3746 1844.1 13.9737C1844.21 12.9274 1843.5 12.8003 1842.33 12.8101C1841.57 12.8101 1840.33 12.8101 1840.11 12.4288C1838.73 10.6492 1837 12.6634 1835.57 12.1061C1835.01 13.4946 1834.18 14.1594 1832.35 12.8688C1831.79 12.9463 1831.24 13.1395 1830.75 13.4359C1827.1 15.3915 1823.34 17.1613 1820.24 19.596C1818.67 20.8378 1817.01 22.2947 1814.3 20.8476C1811.74 21.8938 1808.39 21.4734 1806.17 23.2823C1804.94 24.3014 1803.52 25.0695 1801.99 25.541C1800.85 25.8637 1799.45 25.4823 1797.99 25.8441C1796.53 26.2059 1794.6 27.3597 1792.88 25.9516C1790.88 27.2423 1788.51 26.5481 1786.29 26.6655C1784.87 26.8393 1783.44 26.6084 1782.16 26.0006C1780.79 25.4153 1779.36 24.995 1777.9 24.749C1777.34 24.6567 1776.77 24.6567 1776.21 24.749C1775.36 24.8663 1775.21 26.5774 1773.63 25.3552C1773.53 25.277 1772.02 26.2254 1771.11 26.6361C1770.05 27.1054 1765.82 26.6361 1764.79 26.0494C1764.41 25.805 1764.14 25.4041 1763.72 25.3063C1762.63 25.0521 1762.61 22.9987 1760.46 24.4068C1759.58 24.9837 1758.16 22.8129 1756.72 24.2991C1756.59 24.436 1755.64 24.1623 1755.08 24.0645C1754.49 23.8966 1753.88 23.7917 1753.27 23.7516C1751.94 23.8396 1750.36 24.485 1749.37 24.1427C1748.73 23.8623 1748.04 23.7092 1747.34 23.6924C1746.64 23.6756 1745.95 23.7955 1745.3 24.045C1743.85 24.7294 1742.42 24.2601 1741.02 24.4654C1740.73 24.5345 1740.45 24.6362 1740.19 24.7685C1737.94 25.6094 1736.73 25.0227 1733.95 24.1134C1730.15 22.8716 1726.76 21.0138 1722.72 20.2022C1722.41 20.1435 1721.88 20.0555 1721.79 20.1435C1720.7 21.2778 1719.39 19.6644 1718.65 20.1925C1716.43 21.7374 1715.23 20.5053 1713.75 19.5275C1712.89 18.9922 1711.96 18.5621 1710.99 18.2466C1710.52 18.0804 1709.77 18.3346 1709.32 18.1586C1707.52 17.4742 1709.07 21.5711 1706.57 19.2342C1705.57 18.2564 1702.81 19.5666 1703 17.523C1702.61 17.323 1702.18 17.2253 1701.74 17.2395C1700.36 17.3471 1699.92 16.8679 1700.15 15.9879C1700.56 14.4136 1699.15 14.5701 1697.73 14.1594C1696.55 13.7694 1695.31 13.5777 1694.07 13.5924C1692.03 13.6055 1690 13.4418 1687.99 13.1034C1687.73 12.972 1687.44 12.886 1687.15 12.8492C1685.65 12.8492 1683.75 13.2599 1682.74 12.7514C1681.01 11.8714 1680.18 12.9274 1679.22 13.2599C1678.26 13.5923 1677.9 13.1719 1677.81 12.9177C1677.26 11.4021 1675.19 11.0598 1673.86 10.1896C1673.12 9.71046 1671.52 9.2118 1671.04 10.9229C1670.84 11.6661 1669.56 11.7638 1669.16 10.6687C1668.76 9.57357 1667.83 9.12382 1666.3 9.18249C1665.67 9.25237 1665.03 9.18559 1664.43 8.98692C1663.63 8.62095 1662.92 8.09847 1662.33 7.45178C1661.58 6.47398 1660.48 8.42957 1659.73 7.14866C1659.43 6.64021 1658.2 6.43484 1657.4 6.08283C1657.26 6.03187 1657.14 5.94384 1657.05 5.82867C1655.34 3.32551 1652.75 3.97083 1649.91 4.57706C1647.77 5.2134 1645.46 5.04969 1643.43 4.11753C1641.81 3.26685 1639.54 3.46236 1637.95 2.24012C1637.36 1.86252 1636.67 1.678 1635.96 1.71314C1635.26 1.74828 1634.58 2.0013 1634.03 2.43569C1632.61 3.79482 1630.76 3.32546 1629.03 3.34502C1627.46 3.34502 1625.94 3.55037 1624.46 2.56279C1622.46 1.25255 1619.84 1.98592 1617.46 2.09348C1617.21 2.09348 1616.96 2.58234 1616.76 2.55301C1616.01 2.50774 1615.25 2.61837 1614.54 2.87774C1613.82 3.1371 1613.18 3.53949 1612.63 4.05886C1611.55 3.08597 1610.34 2.24547 1609.04 1.5557C1608.16 1.17437 1607.04 -0.135892 1605.6 1.17435C1602.6 -0.302121 1600.01 1.05698 1597.34 1.87833C1596.67 1.96906 1596 1.96906 1595.34 1.87833C1588.98 1.81966 1584.51 4.13706 1581.2 7.882C1580.49 8.67401 1580.1 9.23132 1578.42 8.52731C1577.67 8.27371 1576.87 8.2357 1576.11 8.41786C1575.34 8.60002 1574.65 8.99464 1574.11 9.55405C1573.35 10.2874 1573.21 10.1896 1570.96 10.1114C1570.57 10.1181 1570.2 10.2526 1569.91 10.4927C1568.97 11.2847 1568.18 12.1745 1567.17 12.9274C1566.26 13.555 1565.3 14.0954 1564.29 14.5408C1563.81 14.7657 1562.86 15.0394 1562.65 14.8928C1560.92 13.6803 1558.85 14.4626 1556.97 14.2865C1555.1 14.0514 1553.21 14.5198 1551.68 15.5968C1550.05 16.7017 1547.68 17.2395 1545.54 17.8946C1543.4 18.5497 1541.44 19.2147 1539.16 18.2955C1538.68 18.229 1538.19 18.3444 1537.8 18.6182C1535.42 20.7791 1531.15 20.8377 1528.73 22.9596C1528.52 23.1453 1527.78 23.0476 1527.29 22.9596C1524.98 22.7937 1522.7 23.5245 1520.94 24.9934C1519.78 25.8604 1518.6 26.7208 1517.41 27.5748C1516.28 28.3766 1515.31 29.5304 1513.41 28.1321C1512.53 28.0584 1511.64 28.264 1510.89 28.7188C1507.72 30.8993 1504.81 33.2949 1500.73 34.5855C1499.2 36.7441 1497 38.3651 1494.45 39.2105C1494.15 39.318 1494.45 40.1883 1494.17 40.5501C1493.76 41.2638 1493.36 42.2905 1492.59 42.5057C1491.3 42.7552 1489.96 42.7552 1488.67 42.5057C1487.82 42.3981 1488.67 40.8728 1487.06 41.1563C1485.73 41.363 1484.44 41.7342 1483.21 42.2612C1479.41 44.0408 1475.1 45.1066 1471.37 46.9547C1470.98 47.1597 1470.55 47.3017 1470.11 47.3751C1469.77 47.4257 1469.42 47.3638 1469.11 47.1991C1468.02 45.8595 1467.04 46.4462 1466.28 47.3262C1465.03 48.7538 1463.14 48.4702 1461.39 48.3724C1460.71 48.3724 1460.09 47.7662 1459.39 47.4631C1459.02 47.2509 1458.63 47.0897 1458.21 46.984C1455.94 48.744 1453.71 46.984 1451.51 46.8862C1448.37 46.808 1446.51 48.2453 1444.45 49.4382C1443.95 49.7858 1443.38 50.0131 1442.77 50.1015C1442.17 50.1899 1441.55 50.1369 1440.97 49.9467C1439.2 49.536 1437.26 49.6436 1435.36 49.3209C1433.55 49.1577 1431.82 48.508 1430.36 47.4435C1430.09 47.1815 1429.74 47.0166 1429.36 46.9757C1428.99 46.9349 1428.6 47.0205 1428.28 47.2186C1426.47 48.0204 1424.6 49.2427 1422.39 47.688C1419.98 47.9031 1417.48 47.2186 1415.12 48.0986C1413.47 48.7147 1413.12 48.0986 1410.95 48.0204C1408.56 48.0204 1408.3 47.512 1408.15 46.1431C1408.08 45.4684 1405.34 45.0968 1404.46 45.7421C1402.86 47.1589 1400.76 47.9215 1398.59 47.8738C1398.1 47.9709 1397.64 48.1799 1397.24 48.4838C1396.85 48.7878 1396.53 49.1783 1396.31 49.624C1395.84 51.3156 1394.52 50.6018 1393.43 50.3476C1392.86 50.2009 1392.54 49.6044 1391.98 49.3698C1390.72 48.832 1389.35 48.392 1387.98 49.1547C1387.04 49.6732 1385.98 49.9333 1384.9 49.9075C1383.51 49.9075 1381.9 49.4089 1380.8 50.5724C1375.8 49.5946 1373.13 52.9094 1369.22 53.9458C1368.36 54.1707 1367.55 54.9236 1366.83 54.9236C1365.86 54.8316 1364.98 54.3711 1364.37 53.6427C1363.85 52.6649 1363.37 52.7334 1362.3 53.1049C1361.3 53.4276 1359.73 53.809 1359.14 53.4667C1357.79 52.7041 1356.38 53.4667 1355.59 53.2027C1354.36 52.8325 1353.08 52.7192 1351.81 52.8703C1349.73 53.0854 1347.76 51.0418 1345.68 52.7432C1345.55 52.6688 1345.44 52.5837 1345.33 52.4889C1344.27 51.296 1342.67 51.3156 1340.97 51.3449C1339.91 51.3418 1338.86 51.1287 1337.89 50.7187C1336.91 50.3086 1336.04 49.7101 1335.31 48.9591C1334.55 48.0987 1333.86 47.5902 1332.51 48.4116C1332.09 48.4194 1331.68 48.2922 1331.35 48.0498C1331.35 47.3067 1331.04 46.808 1329.98 47.072C1329.6 47.16 1329.58 47.9324 1329.17 48.1475C1328.65 48.3735 1328.07 48.4049 1327.54 48.2356C1326.45 47.4924 1325.54 46.6417 1324.32 48.0986C1320.44 48.6169 1317.83 50.4942 1315.32 52.4791C1315.12 52.6111 1314.89 52.6888 1314.65 52.7041C1312.96 51.1592 1311.71 52.841 1310.56 53.193C1309.41 53.545 1308.08 54.337 1308.24 55.7156C1308.24 56.1556 1307.42 56.6934 1306.97 57.1237C1306.76 56.6543 1306.32 56.1459 1306.37 55.7156C1306.47 54.6303 1305.99 54.2783 1304.45 54.2685C1303.25 54.2685 1301.73 53.3885 1300.94 53.6916C1299.97 54.1769 1298.88 54.3869 1297.79 54.2978C1295.5 53.9556 1293.67 55.2757 1293.54 56.1654C1293.32 57.7495 1291.92 58.4045 1290.89 59.4312C1290.47 59.8517 1290.57 60.5362 1290.32 61.074C1289.84 62.0518 1288.91 62.2473 1287.69 61.4749C1286.86 60.9371 1285.94 60.4384 1285.32 61.3184C1284.57 62.3842 1282.32 62.0322 1281.98 63.5576C1281.89 63.9682 1279.79 64.4571 1278.75 64.33C1278.04 64.2518 1277.62 63.8314 1276.94 64.4278C1275.76 65.4545 1274.5 66.3834 1272.33 66.0118C1272.08 66.0118 1271.33 66.4127 1271.39 66.5594C1271.86 68.3096 1270.32 68.2314 1268.75 68.1727L1268.25 68.1727C1266.25 68.1727 1264.02 67.7718 1262.32 68.2901C1260.78 68.7594 1259.92 70.3043 1258.57 71.2235C1257.22 72.1426 1256.57 73.4333 1254.24 73.3062C1253.65 73.3062 1252.89 73.9124 1252.38 74.3524C1251.76 74.9651 1250.97 75.3765 1250.1 75.5305C1249.23 75.6845 1248.34 75.5735 1247.54 75.2128C1245.93 74.4306 1244.94 74.4893 1243.78 75.5062C1242.62 76.5231 1241.43 77.6574 1240.31 78.772C1239.8 79.3284 1239.33 79.9128 1238.89 80.5223C1237.72 79.3587 1237.12 80.4049 1236.42 80.8743C1235.72 81.3436 1235.06 81.9694 1234.27 82.3899C1233.71 82.6431 1233.1 82.7508 1232.48 82.7028C1231.94 82.6209 1231.38 82.6669 1230.86 82.8369C1230.34 83.007 1229.87 83.2962 1229.48 83.6805C1228.48 84.5899 1226.88 84.5899 1225.81 85.0886C1224.2 85.8415 1223.51 85.5579 1222.59 84.7268C1220.98 83.2601 1219.78 82.9081 1218.23 83.9446C1216.3 85.245 1214.71 85.0984 1212.62 84.2183C1211.47 83.7392 1209.9 82.8592 1208.46 84.1499C1208.31 84.215 1208.14 84.2485 1207.96 84.2485C1207.79 84.2485 1207.62 84.215 1207.46 84.1499C1204.46 82.4779 1203.02 84.2477 1200.93 85.3917C1198.84 86.5357 1196.5 87.1615 1196.19 89.43C1196.08 90.2415 1195.03 91.0042 1194.32 91.7571C1194.01 91.8985 1193.65 91.9194 1193.32 91.8158C1190.49 89.4593 1187.4 90.9456 1185.23 92.0602C1182.78 93.3747 1180.19 94.4552 1177.52 95.287C1176.82 95.5627 1176.09 95.7373 1175.33 95.8052C1172.39 95.8052 1172.43 95.8052 1170.98 97.135C1170.34 97.7217 1169.36 98.6995 1169.16 96.8808C1168.63 96.6083 1168.03 96.5089 1167.45 96.5972C1166 97.1937 1164.23 97.3403 1163.25 98.6212C1161.93 100.371 1159.9 100.733 1157.31 99.8044C1156.06 99.3977 1154.9 98.7823 1153.87 97.9857C1152.87 97.1643 1152.47 97.7217 1151.63 97.9857C1150.16 98.4354 1148.63 97.751 1148.44 96.8905C1148.41 96.6834 1148.33 96.4853 1148.21 96.3137C1148.09 96.142 1147.93 96.0019 1147.74 95.9055C1147.55 95.8092 1147.34 95.7594 1147.13 95.7607C1146.91 95.7619 1146.7 95.8141 1146.52 95.9128C1145.72 96.3403 1144.82 96.5603 1143.9 96.5518C1142.99 96.5432 1142.1 96.3064 1141.31 95.8639C1140.15 96.5385 1139.15 96.5483 1138.31 95.5314C1137.98 95.412 1137.63 95.412 1137.31 95.5314C1136.23 96.2941 1135.25 97.2817 1133.81 95.8541C1131.19 97.0959 1127.73 94.9741 1125.28 96.9785C1125.03 97.1383 1124.76 97.248 1124.47 97.3012C1120.61 98.279 1119.72 97.9563 1119.41 94.8763C1119.25 93.2727 1118.66 94.1332 1117.61 94.3189C1116.56 94.5047 1115.4 94.5145 1114.61 95.2967C1113.82 96.079 1113.34 96.0692 1113.33 95.0229C1113.32 93.9767 1113.67 93.4976 1111.68 94.2994C1110.23 94.8861 1108.03 94.5243 1106.16 95.0914C1104.54 95.5803 1102.91 94.8665 1100.32 93.3216C1099.87 93.0194 1099.33 92.8626 1098.78 92.8731C1098.23 92.8836 1097.7 93.0609 1097.26 93.3803C1096.83 93.774 1096.35 94.1036 1095.82 94.3581C1095.5 94.4558 1094.91 94.006 1094.43 94.006C1093.95 94.006 1093.09 94.446 1092.77 94.2896C1092.18 93.9801 1091.69 93.5031 1091.38 92.9207C1091.16 92.5002 1091.38 91.9429 1091.33 91.4736C1091.33 90.7695 1091.04 90.8967 1090.23 91.1411C1088.72 91.5909 1085.57 90.7109 1083.75 90.046C1081.93 89.3811 1081.21 87.4744 1078.67 87.7188C1077.67 86.741 1076.23 87.1028 1075.01 87.1615C1073.63 87.2299 1071.8 88.1393 1071.01 87.7384C1069.57 87.0148 1068.23 87.2495 1066.82 87.1028C1066.24 86.9995 1065.67 86.8322 1065.12 86.6042C1063.84 86.0013 1062.37 85.9033 1061.02 86.3304C1060.36 86.5748 1059.22 86.125 1058.29 86.0077C1057.73 85.9295 1056.86 85.6948 1056.63 85.8708C1054.52 87.5624 1052.78 85.0397 1050.82 85.6557C1049.88 84.6695 1049.07 83.5685 1048.42 82.3801C1047.94 81.1481 1047.23 80.6103 1045.48 80.5418C1042.09 80.3951 1039.01 80.7276 1036.76 82.8103C1036.16 83.3677 1035.76 83.4557 1034.95 82.8788C1033.86 82.186 1032.71 81.5748 1031.52 81.0503C1029.88 80.2289 1028.23 80.3267 1027.52 81.6369C1027.09 82.5449 1026.37 83.2911 1025.47 83.7622C1024.57 84.2334 1023.53 84.4039 1022.52 84.2477C1021.94 84.284 1021.38 84.5313 1020.97 84.9419C1020.11 85.8512 1019.48 85.509 1018.82 84.8539C1017.19 83.2601 1016.42 83.133 1015.54 84.6876C1014.84 85.9392 1014.29 86.0859 1013.33 85.1668C1012.37 84.2477 1011.49 84.6388 1010.46 84.5606C1009.64 84.4921 1009.29 82.8103 1007.98 84.1694C1006.55 82.1063 1002.72 83.3579 1000.98 81.4512C1000.37 80.7667 998.883 81.3925 998.393 82.429C997.513 84.3063 996.753 86.2717 993.303 86.3988C991.304 88.1784 987.824 88.0513 985.584 89.5473C985.244 89.8169 984.83 89.9805 984.394 90.0166C981.934 89.5473 980.784 90.8771 979.394 91.8744C978.006 92.9786 976.361 93.7309 974.604 94.0647C973.324 94.3092 971.874 93.9963 970.914 94.5047C969.955 95.0132 969.565 96.0496 968.705 96.7047C967.335 97.7412 966.845 97.6239 965.325 96.1963C963.805 94.7687 960.035 94.6709 958.535 96.1963C958.135 96.607 958.375 97.1741 957.275 97.399C952.805 98.4843 952.395 102.161 949.506 104.302C949.006 104.674 949.585 105.73 949.365 106.424C949.016 107.47 947.456 107.578 946.366 106.747C946.006 106.453 945.316 106.052 944.986 106.14C943.751 106.435 942.556 106.871 941.426 107.441C940.706 107.832 940.426 108.614 939.746 109.084C938.346 110.061 937.016 111.313 935.316 111.831C933.616 112.349 932.216 111.029 930.686 110.482C929.821 110.219 928.939 110.01 928.047 109.856C927.737 109.835 927.43 109.792 927.127 109.729C925.917 109.289 927.206 112.232 924.847 110.56C923.977 109.944 922.337 110.56 921.517 111.469C920.947 112.115 920.517 111.391 920.107 111.401C918.237 111.479 916.607 109.846 914.637 111C914.187 110.521 913.817 110.453 913.207 111C911.137 112.692 911.107 112.741 908.767 112.682C905.847 112.604 903.198 113.797 900.178 113.513C899.178 113.425 897.928 114.256 897.018 114.853C895.338 115.957 893.778 117.043 891.268 117.111C889.728 117.111 890.368 118.285 890.478 118.842C890.838 120.71 890.548 121.228 888.478 121.443C886.419 121.625 884.462 122.405 882.859 123.682C881.739 124.572 879.199 124.376 879.309 126.205C878.939 126.407 878.523 126.514 878.099 126.518C876.979 125.54 874.199 126.263 873.829 124.367C873.739 123.917 872.999 123.389 872.069 124.161C871.519 124.601 870.409 124.562 870.429 123.653C870.429 121.912 869.229 121.355 867.049 121.433C865.959 121.472 864.873 121.275 863.869 120.856C862.869 120.465 862.26 120.318 862.4 119.458C862.54 118.598 861.84 118.48 860.88 118.48C860.44 118.48 859.72 118.412 859.59 118.206C859.264 117.625 859.009 117.008 858.83 116.368C858.173 116.642 857.479 116.819 856.77 116.896C855.88 116.896 855.01 116.378 854.13 116.358C853.43 116.358 852.72 116.906 852 116.945C850.12 117.023 848 117.581 846.58 116.085C845.82 115.302 845.06 115.478 844.15 116.085C843.49 116.525 842.61 116.525 842.431 115.635C842.351 115.273 842.49 114.892 842.431 114.54C842.261 113.904 843.061 112.995 841.731 112.682C841.131 112.538 840.501 112.57 839.92 112.773C839.339 112.977 838.831 113.343 838.461 113.826C838.263 114.127 838.118 114.457 838.031 114.804C837.858 114.523 837.661 114.258 837.441 114.012C836.951 113.552 836.441 112.75 835.901 112.75C834.301 112.75 834.421 112.076 834.451 111.333C834.437 111.163 834.377 111 834.279 110.86C834.18 110.72 834.046 110.607 833.89 110.533C833.733 110.459 833.56 110.427 833.386 110.438C833.213 110.45 833.046 110.505 832.901 110.599C832.289 110.948 831.609 111.169 830.905 111.246C830.2 111.324 829.487 111.257 828.811 111.049C828.301 110.951 828.161 110.071 827.611 109.797C827.061 109.524 825.811 109.661 825.441 109.309C824.361 108.272 822.971 108.331 821.442 108.282C820.986 108.224 820.523 108.258 820.082 108.381C819.64 108.503 819.228 108.713 818.872 108.996C818.74 108.308 818.49 107.646 818.132 107.04C816.842 105.466 813.772 104.889 810.692 105.554C809.671 105.733 808.667 105.998 807.692 106.346C806.092 107.02 804.822 107.607 804.192 105.612C803.942 104.801 801.702 106.121 801.492 104.752C801.232 103.1 800.183 104.85 799.823 104.508C799.463 104.165 797.823 103.852 799.203 102.933C799.422 102.787 798.953 101.955 798.583 101.486C797.773 100.508 797.363 101.623 796.803 101.77C796.11 101.986 795.44 102.268 794.803 102.611C794.441 102.818 794.067 103.004 793.683 103.168C791.573 101.584 789.523 103.168 787.473 103.168C787.174 103.172 786.882 103.079 786.643 102.904C785.573 101.731 784.033 101.672 782.303 101.682C781.133 101.682 781.783 99.7261 779.704 100.235C779.168 100.371 778.605 100.36 778.075 100.203C777.546 100.046 777.071 99.7492 776.704 99.3448C775.954 98.6017 775.424 97.575 774.424 97.1545C771.694 95.8388 768.897 94.6607 766.044 93.6247C764.604 93.1847 763.674 92.6469 762.194 93.478C761.254 93.9865 760.194 93.478 759.124 93.2336C757.605 92.95 757.745 91.7473 756.655 91.5518C755.565 91.3562 754.185 91.7766 754.405 90.3686C754.045 90.3686 753.695 90.4566 753.345 90.5251C752.995 90.5935 752.155 90.8673 752.035 90.7597C750.215 89.0975 748.365 90.3979 746.935 90.9553C745.715 91.4246 744.995 91.7864 744.115 90.8771C743.015 89.7233 741.335 89.4593 739.655 89.0193C738.235 88.6477 736.235 88.6673 735.796 87.0637C735.726 86.7801 734.495 86.3401 734.276 86.4574C732.046 87.621 729.476 85.4797 727.276 86.8779C727.053 86.9579 726.809 86.9579 726.586 86.8779C725.036 86.3694 723.686 85.4797 721.816 85.597C720.106 83.7783 718.516 84.1694 716.916 85.7045C716.106 86.4868 715.437 86.4574 714.077 85.9685C713.017 85.597 711.177 86.2326 709.767 86.5943C708.561 86.9549 707.407 87.4676 706.337 88.1197L706.447 88.2077C706.257 88.325 706.067 88.4326 706.157 88.2077C705.757 88.4521 705.537 88.3348 705.567 88.3055C705.698 88.1475 705.845 88.0034 706.007 87.8752C705.377 86.4281 703.867 87.2299 702.717 87.3179C701.867 87.3766 701.137 88.0121 700.287 88.2957C698.417 88.8921 696.457 88.8335 696.007 87.8068C695.287 86.1836 693.877 86.389 692.287 86.389C691.678 86.389 690.598 86.2521 690.548 86.0663C689.918 83.6121 688.778 85.1961 687.698 85.8219C686.208 86.7019 684.698 87.5526 683.178 88.4033C681.738 87.4255 680.438 88.325 679.118 88.5988C678.387 88.7229 677.679 88.9536 677.018 89.2833C675.628 90.1046 675.638 90.0655 672.768 90.0753C671.855 90.0908 670.956 90.2941 670.129 90.6717C665.129 93.038 663.819 92.9011 660.129 89.4886C659.408 88.8876 658.523 88.5062 657.583 88.3915C656.643 88.2768 655.689 88.4339 654.839 88.8432C653.279 89.6939 652.889 87.8655 651.99 88.5988C651.638 88.9 651.222 89.1205 650.772 89.244C650.322 89.3675 649.85 89.3909 649.39 89.3126C645.12 88.6575 643.39 91.5615 640.39 92.7055C640.39 94.3482 639.52 93.4096 638.88 92.95C638.24 92.4904 637.88 91.9722 637.08 92.7935C636.49 93.3704 635.66 93.8202 634.99 94.358C634.14 95.0425 633.61 95.1989 631.86 95.15C631.695 95.1749 631.526 95.1749 631.36 95.15C629.181 94.4656 628.761 97.2621 626.781 96.4701C625.217 95.8781 623.484 95.8781 621.921 96.4701C620.46 96.7437 619.072 97.306 617.841 98.1225C617.113 98.828 616.187 99.3076 615.181 99.5012C611.631 99.5012 609.671 101.212 607.511 102.777C606.641 103.403 602.772 104.42 602.082 103.892C600.082 102.405 598.492 103.676 596.882 104.028C594.532 104.547 592.352 105.446 590.012 105.984C589.107 106.058 588.195 105.952 587.333 105.671C585.243 105.251 583.223 104.889 581.543 106.356C581.242 106.529 580.886 106.589 580.543 106.522C578.534 105.911 576.38 105.932 574.383 106.58C573.193 106.942 572.953 106.923 572.383 105.974C570.873 103.489 568.487 101.629 565.673 100.743C564.913 100.489 564.524 100.127 563.564 100.528C561.364 101.427 561.304 101.3 558.184 101.027C557.184 100.939 555.864 100.714 555.244 101.027C553.444 102.053 551.474 101.515 549.604 101.721C548.384 101.858 547.224 102.327 546.014 102.395C545.448 102.347 544.883 102.494 544.416 102.81C543.948 103.126 543.609 103.591 543.455 104.126C543.319 104.315 543.127 104.458 542.905 104.537C540.005 103.021 538.595 105.564 536.355 105.808C535.752 105.954 535.135 106.036 534.515 106.052C533.305 105.906 531.515 105.143 531.065 105.456C529.665 106.492 528.835 105.945 527.745 105.368C527.419 105.275 527.072 105.275 526.745 105.368C525.745 105.534 524.425 106.131 523.805 105.857C521.599 104.935 519.501 103.785 517.546 102.425C516.786 101.877 516.486 101.027 515.146 100.978C513.806 100.929 512.576 100.978 511.636 101.897C511.11 102.434 510.395 102.755 509.636 102.796C508.496 102.513 506.866 101.946 506.636 101.291C506.286 100.166 505.126 99.7554 504.306 99.071C502.626 97.6532 499.377 97.8487 498.097 95.9616C495.987 95.9616 493.737 95.7269 491.797 96.1669C490.457 96.4603 489.557 96.7438 488.317 96.1669C487.839 95.9034 487.292 95.7849 486.746 95.8267C486.199 95.8685 485.677 96.0686 485.247 96.4016C484.85 96.5768 484.407 96.6313 483.977 96.558C482.697 94.3091 479.138 94.9545 477.188 93.6247C476.183 92.8223 475.286 91.8992 474.518 90.8771C474.438 90.7891 474.518 90.6131 474.518 90.5153C473.98 89.4351 473.308 88.4236 472.518 87.5037C471.018 86.0956 469.808 88.7161 468.198 87.8361C467.298 89.6939 464.978 87.1223 463.938 88.5597C462.398 88.3348 460.728 89.0388 459.229 88.0121C458.229 87.3179 457.499 88.2468 456.879 88.7259C456.558 89.0421 456.13 89.2311 455.676 89.2564C455.221 89.2817 454.773 89.1415 454.419 88.8628C452.989 88.0415 450.229 88.2859 450.529 86.1152C450.529 85.9881 449.829 85.6752 449.439 85.6654C447.039 85.5872 444.639 85.8218 442.319 84.9712C441.649 84.7267 440.499 85.1765 439.569 85.2743C439.215 85.2968 438.86 85.2804 438.509 85.2254C437.769 85.1276 437.719 83.6512 436.33 84.6485C436.22 84.7267 435.25 84.0814 434.62 83.8663C434.085 83.6511 433.506 83.564 432.93 83.6121C431.31 83.9543 429.77 84.5018 428.14 84.8343C427.557 84.8965 426.971 84.7506 426.49 84.4236C425.75 83.8467 425.29 83.0742 424.56 82.468C424.107 82.1805 423.567 82.0529 423.03 82.1062C421.71 83.084 421.59 82.5463 421.57 81.5978C421.568 81.0349 421.446 80.4786 421.21 79.9649C418.94 80.0138 419.21 77.8724 417.58 77.6573C414.581 77.2661 411.581 77.1195 408.511 76.8946C407.851 76.8457 407.161 76.963 406.511 76.8946C406.326 76.8643 406.15 76.7931 405.998 76.6863C405.845 76.5795 405.72 76.4401 405.631 76.2786C405.331 75.1444 404.561 75.3008 403.631 75.819C403.127 76.1175 402.655 76.4647 402.221 76.8555C401.521 77.4715 401.011 77.7844 400.011 76.9728C399.246 76.6786 398.396 76.6786 397.631 76.9728C395.692 77.9506 393.572 77.667 391.512 77.6279C389.942 77.6279 389.082 78.0679 388.602 79.0946C387.802 80.8155 386.302 81.6369 383.712 82.1454C380.522 82.7614 377.712 84.0521 377.462 87.181C377.312 88.9899 375.052 90.3979 372.892 91.4931C372.589 91.5658 372.269 91.5275 371.993 91.3855C371.601 91.0196 371.24 90.624 370.913 90.2024C370.523 90.6326 370.253 91.1802 369.723 91.4833C368.233 92.3046 366.433 92.2264 364.663 92.2557C361.493 92.2557 361.403 92.4024 360.003 91.3659C359.887 91.2388 359.744 91.1384 359.584 91.0717C359.424 91.005 359.251 90.9738 359.077 90.9804C358.903 90.9869 358.732 91.031 358.578 91.1095C358.424 91.188 358.289 91.299 358.183 91.4344C357.884 91.5508 357.555 91.5713 357.243 91.4931C356.193 91.2975 357.073 89.909 355.153 89.9188C354.153 89.9188 353.464 91.4931 352.384 90.2317C351.529 90.5054 350.61 90.5173 349.748 90.2656C348.887 90.0139 348.125 89.5108 347.564 88.8237C346.464 87.6014 345.564 88.3054 344.474 88.5792C342.754 89.0192 342.284 90.9455 340.234 90.7108C338.787 90.4176 337.382 89.9479 336.054 89.3126C333.944 88.5401 332.055 87.357 329.375 87.8263C329.215 87.8263 328.805 87.3765 328.665 87.093C327.845 85.509 327.845 85.4992 325.855 86.6334C325.355 86.917 325.225 87.3472 324.595 86.565C322.886 84.4617 321.045 82.4632 319.085 80.5809C317.895 79.4271 316.185 78.5666 314.925 77.4422C313.665 76.3177 311.565 77.3933 309.985 76.2981C308.796 75.467 306.516 76.3568 305.126 77.051C303.956 77.6377 303.466 77.3933 302.266 77.1195C298.016 76.1417 295.206 73.7461 291.736 72.0349C291.336 71.8296 291.176 71.282 290.306 71.0571C288.816 70.6367 288.307 72.7585 286.837 71.595C285.997 70.93 284.627 72.1621 283.927 71.1256C282.147 71.5069 280.297 71.771 278.607 72.3087C276.917 72.8465 274.837 73.3843 273.897 74.4012C272.687 75.7212 270.327 76.1906 269.687 77.7844C269.437 78.4102 269.187 78.635 268.687 77.8919C268.417 77.491 268.068 77.1097 267.838 76.6892C266.778 74.7337 266.418 74.4012 264.128 74.8412C262.426 75.1058 260.687 75.0259 259.018 74.6065C258.189 74.4958 257.4 74.1872 256.722 73.708C256.043 73.2289 255.496 72.5938 255.128 71.8589C254.937 71.5481 254.685 71.2773 254.386 71.0625C254.088 70.8476 253.749 70.6929 253.388 70.6074C252.598 70.4313 251.018 70.4705 250.808 70.7833C249.808 72.3576 247.628 72.739 245.898 73.5505C244.169 74.3621 242.549 75.3008 240.899 76.2395C240.124 76.7116 239.386 77.2377 238.689 77.8137C238.479 77.9701 238.309 78.3808 238.209 78.3613C235.869 77.9701 234.429 79.339 232.529 79.8279C230.541 80.2802 228.51 80.526 226.469 80.5613C223.469 80.6102 221.21 81.9009 218.58 82.5169C215.445 83.3298 212.199 83.6597 208.96 83.4947C207.81 83.3969 206.62 83.5533 205.47 83.4947C204.321 83.436 202.571 84.1889 202.681 82.4093C202.345 82.398 202.01 82.4242 201.681 82.4875C198.354 83.8168 194.771 84.424 191.181 84.2671C188.791 84.1596 186.601 85.4014 184.101 84.9907C183.471 84.8831 182.341 85.0689 182.221 84.8734C180.891 82.6342 177.812 82.7613 175.362 82.0476C175.112 81.9693 174.952 81.7249 174.762 81.5489L173.762 80.5711C173.467 80.9153 173.132 81.2239 172.762 81.4902C172.332 81.7346 171.562 82.0671 171.262 81.94C170.432 81.5978 169.852 80.7862 169.012 80.6493C168.172 80.5124 167.332 81.1284 166.442 81.2555C166.142 81.2555 165.722 80.6689 165.342 80.6591C164.82 80.6708 164.31 80.8157 163.862 81.0795C164.242 82.7027 163.012 82.8396 161.282 82.8102C160.822 82.8102 160.283 83.4458 159.873 83.788C159.213 84.2867 158.872 84.2085 158.792 83.4947C158.808 83.2537 158.808 83.0121 158.792 82.7711C158.453 80.6004 157.613 80.18 154.723 81.0306C153.523 81.3924 153.473 81.0306 152.723 80.4831C151.433 79.5053 150.503 77.7941 147.723 78.3319C146.423 78.5764 145.113 77.8332 143.523 78.283C141.887 78.5615 140.217 78.5846 138.573 78.3515C137.174 78.283 135.834 78.5275 134.364 77.8137C133.635 77.5258 132.838 77.4437 132.064 77.5768C131.289 77.7099 130.569 78.0528 129.984 78.5666C128.662 79.6951 127.121 80.5529 125.454 81.0893C124.094 81.5 123.974 81.9106 123.764 82.7907C123.554 83.6707 122.984 84.8636 121.274 83.5045C120.831 83.4433 120.38 83.5405 120.004 83.7782C119.105 84.5702 118.344 85.46 117.495 86.2814C116.955 86.8094 116.675 86.8681 114.885 87.1223C114.722 87.1074 114.558 87.1074 114.395 87.1223C112.215 87.7579 112.135 87.7383 110.495 86.4867C109.697 85.8443 108.862 85.2469 107.995 84.6974C107.505 84.4129 106.945 84.2641 106.375 84.2671C104.765 85.6947 103.915 84.4823 102.825 83.8271C101.792 83.0338 100.61 82.4458 99.3453 82.0964C97.7903 82.0478 96.2509 81.7777 94.7755 81.2946C93.6056 80.7666 92.6857 82.1355 91.0158 81.4022C89.4959 80.7373 89.1057 81.1871 88.4258 80.5906C86.8558 79.2119 84.276 78.635 81.5361 78.9577C80.2562 79.0946 78.9064 78.9577 77.6165 79.1142C76.3265 79.2706 75.2365 79.7302 74.0265 79.7888C72.1166 79.8768 70.0867 80.131 68.6668 78.635C68.0114 78.1346 67.2244 77.8261 66.397 77.7453C64.8771 78.9773 62.8771 77.9995 61.2572 78.4688C61.1172 78.4688 60.9171 78.635 60.9171 78.723C60.9771 80.1897 60.5271 81.1577 58.0473 81.3631C56.6373 81.4804 55.3975 82.4973 54.0475 82.996C51.9276 83.7685 51.6076 83.7196 49.9476 82.4289C49.2277 81.8715 48.7577 82.0573 47.9478 82.3311C45.9479 82.9862 45.9479 82.8884 44.9479 81.236C44.5988 80.6578 44.0844 80.1922 43.468 79.8964C43.1481 79.7497 42.388 80.2484 41.798 80.2973C40.8982 80.3543 39.9951 80.338 39.0982 80.2484C38.6587 80.1911 38.2365 80.0445 37.8583 79.8182C36.5684 79.0653 34.9584 78.5373 34.0184 77.5497C32.3485 75.7994 31.2185 78.2146 29.4586 77.755C28.0487 77.3834 25.8588 77.0608 24.4589 78.3515C24.1594 78.4636 23.8283 78.4636 23.5288 78.3515C21.6889 76.6599 19.6991 77.9408 18.4691 78.5959C16.4692 79.6519 15.5494 78.8013 15.1394 77.8723C14.5394 76.5034 14.1394 76.8261 12.8095 77.3932C11.3195 78.0484 9.26954 77.8235 8.00965 79.0652C7.00965 80.043 5.3899 80.7666 5.0099 82.1257C4.80995 82.9373 4.47987 82.4973 3.83985 82.3507C2.56935 82.1559 1.28602 82.0513 1.09245e-05 82.0378L0 207L1919 207ZM1557.42 15.763C1557.69 15.8308 1557.95 15.9433 1558.19 16.0955C1557.11 16.7115 1556.06 17.3568 1554.92 17.9044C1554.69 18.0119 1554.09 17.7186 1554.05 17.7088C1554.25 17.0272 1554.71 16.4464 1555.33 16.0848C1555.96 15.7232 1556.7 15.6082 1557.41 15.763L1557.42 15.763Z" fill="#F8F7FC"/>
</svg>
